tgl0_17.sfdir
StartChar: exclam
Encoding: 33 33 21
Width: 404
Flags: W
LayerCount: 2
Back
Fore
SplineSet
306 519 m 2,0,1
 306 497 306 497 297.5 478.5 c 128,-1,2
 289 460 289 460 274.5 445.5 c 128,-1,3
 260 431 260 431 241.5 423 c 128,-1,4
 223 415 223 415 201 415 c 0,5,6
 180 415 180 415 161 423 c 128,-1,7
 142 431 142 431 128 445.5 c 128,-1,8
 114 460 114 460 106 478.5 c 128,-1,9
 98 497 98 497 98 519 c 2,10,-1
 98 1348 l 2,11,12
 98 1369 98 1369 106 1388 c 128,-1,13
 114 1407 114 1407 128 1421.5 c 128,-1,14
 142 1436 142 1436 161 1444 c 128,-1,15
 180 1452 180 1452 201 1452 c 0,16,17
 223 1452 223 1452 241.5 1444 c 128,-1,18
 260 1436 260 1436 274.5 1421.5 c 128,-1,19
 289 1407 289 1407 297.5 1388.5 c 128,-1,20
 306 1370 306 1370 306 1348 c 2,21,-1
 306 934 l 1,22,-1
 306 519 l 2,0,1
305 104 m 2,23,24
 305 60 305 60 275.5 30.5 c 128,-1,25
 246 1 246 1 201 1 c 0,26,27
 179 1 179 1 160.5 9.5 c 128,-1,28
 142 18 142 18 128 32 c 128,-1,29
 114 46 114 46 106 65 c 128,-1,30
 98 84 98 84 98 104 c 2,31,-1
 98 106 l 2,32,33
 98 127 98 127 106 145.5 c 128,-1,34
 114 164 114 164 128 178.5 c 128,-1,35
 142 193 142 193 160.5 201 c 128,-1,36
 179 209 179 209 201 209 c 0,37,38
 222 209 222 209 241 201.5 c 128,-1,39
 260 194 260 194 274 180 c 128,-1,40
 288 166 288 166 296.5 147.5 c 128,-1,41
 305 129 305 129 305 106 c 2,42,-1
 305 105 l 1,43,-1
 305 104 l 2,23,24
EndSplineSet
EndChar
StartChar: dollar
Encoding: 36 36 101
Width: 1250
Flags: W
LayerCount: 2
Back
Fore
SplineSet
520 1561 m 2,0,1
 520 1581 520 1581 528 1600.5 c 128,-1,2
 536 1620 536 1620 550 1634 c 128,-1,3
 564 1648 564 1648 582.5 1656.5 c 128,-1,4
 601 1665 601 1665 623 1665 c 256,5,6
 645 1665 645 1665 663.5 1656.5 c 128,-1,7
 682 1648 682 1648 696.5 1634 c 128,-1,8
 711 1620 711 1620 719 1601 c 128,-1,9
 727 1582 727 1582 727 1561 c 2,10,-1
 727 1446 l 1,11,12
 872 1430 872 1430 972.5 1360.5 c 128,-1,13
 1073 1291 1073 1291 1131 1190 c 0,14,15
 1144 1167 1144 1167 1144 1142 c 0,16,17
 1144 1118 1144 1118 1135 1099 c 128,-1,18
 1126 1080 1126 1080 1111.5 1066 c 128,-1,19
 1097 1052 1097 1052 1078 1044.5 c 128,-1,20
 1059 1037 1059 1037 1040 1037 c 0,21,22
 1010 1037 1010 1037 990.5 1050 c 128,-1,23
 971 1063 971 1063 955.5 1082.5 c 128,-1,24
 940 1102 940 1102 927.5 1122 c 128,-1,25
 915 1142 915 1142 899 1157 c 0,26,27
 871 1182 871 1182 833 1202.5 c 128,-1,28
 795 1223 795 1223 736 1234 c 0,29,30
 733 1235 733 1235 727 1235 c 1,31,-1
 727 815 l 1,32,33
 826 795 826 795 903.5 758 c 128,-1,34
 981 721 981 721 1034 670.5 c 128,-1,35
 1087 620 1087 620 1115 557.5 c 128,-1,36
 1143 495 1143 495 1143 424 c 0,37,38
 1143 414 1143 414 1142.5 397.5 c 128,-1,39
 1142 381 1142 381 1140 379 c 1,40,-1
 1140 374 l 1,41,42
 1128 309 1128 309 1095 249.5 c 128,-1,43
 1062 190 1062 190 1010 141.5 c 128,-1,44
 958 93 958 93 887 58.5 c 128,-1,45
 816 24 816 24 727 8 c 1,46,-1
 727 -98 l 2,47,48
 727 -120 727 -120 719 -138.5 c 128,-1,49
 711 -157 711 -157 696.5 -171.5 c 128,-1,50
 682 -186 682 -186 663 -193.5 c 128,-1,51
 644 -201 644 -201 623 -201 c 256,52,53
 602 -201 602 -201 583 -193 c 128,-1,54
 564 -185 564 -185 550.5 -171 c 128,-1,55
 537 -157 537 -157 528.5 -138 c 128,-1,56
 520 -119 520 -119 520 -98 c 2,57,-1
 520 6 l 1,58,59
 365 31 365 31 268.5 96 c 128,-1,60
 172 161 172 161 119 262 c 0,61,62
 113 274 113 274 109.5 285.5 c 128,-1,63
 106 297 106 297 106 311 c 0,64,65
 106 331 106 331 114 350.5 c 128,-1,66
 122 370 122 370 136 384 c 128,-1,67
 150 398 150 398 169 406.5 c 128,-1,68
 188 415 188 415 208 415 c 0,69,70
 238 415 238 415 257 402.5 c 128,-1,71
 276 390 276 390 291 372 c 128,-1,72
 306 354 306 354 319.5 333.5 c 128,-1,73
 333 313 333 313 351 295 c 0,74,75
 376 269 376 269 418.5 248 c 128,-1,76
 461 227 461 227 513 217 c 1,77,-1
 520 216 l 1,78,-1
 520 637 l 1,79,80
 423 655 423 655 345.5 692.5 c 128,-1,81
 268 730 268 730 214.5 781 c 128,-1,82
 161 832 161 832 133 894 c 128,-1,83
 105 956 105 956 105 1024 c 0,84,85
 105 1029 105 1029 105 1037 c 128,-1,86
 105 1045 105 1045 105.5 1052.5 c 128,-1,87
 106 1060 106 1060 107 1066 c 128,-1,88
 108 1072 108 1072 109 1073 c 1,89,-1
 109 1078 l 1,90,91
 120 1146 120 1146 154.5 1207 c 128,-1,92
 189 1268 189 1268 242.5 1316.5 c 128,-1,93
 296 1365 296 1365 366.5 1398.5 c 128,-1,94
 437 1432 437 1432 520 1444 c 1,95,-1
 520 1561 l 2,0,1
745 224 m 2,96,97
 778 234 778 234 812.5 252.5 c 128,-1,98
 847 271 847 271 874 295.5 c 128,-1,99
 901 320 901 320 918.5 349 c 128,-1,100
 936 378 936 378 936 409 c 2,101,-1
 936 410 l 1,102,-1
 936 422 l 2,103,104
 936 484 936 484 880.5 530 c 128,-1,105
 825 576 825 576 727 602 c 1,106,-1
 727 219 l 1,107,-1
 745 224 l 2,96,97
504 1228 m 0,108,109
 465 1217 465 1217 432 1197.5 c 128,-1,110
 399 1178 399 1178 374 1154 c 128,-1,111
 349 1130 349 1130 333 1103 c 128,-1,112
 317 1076 317 1076 314 1049 c 1,113,-1
 314 1043 l 1,114,115
 313 1038 313 1038 313 1034.5 c 128,-1,116
 313 1031 313 1031 313 1026 c 0,117,118
 313 993 313 993 330 965.5 c 128,-1,119
 347 938 347 938 375.5 915.5 c 128,-1,120
 404 893 404 893 441.5 877 c 128,-1,121
 479 861 479 861 520 849 c 1,122,-1
 520 1232 l 1,123,124
 516 1231 516 1231 512 1230 c 128,-1,125
 508 1229 508 1229 504 1228 c 0,108,109
EndSplineSet
EndChar
StartChar: uni0025
Encoding: 37 37 11
Width: 1668
Flags: W
LayerCount: 2
Back
Fore
SplineSet
896 1375 m 1,0,1
 906 1407 906 1407 933.5 1429.5 c 128,-1,2
 961 1452 961 1452 996 1452 c 0,3,4
 1020 1452 1020 1452 1039 1443.5 c 128,-1,5
 1058 1435 1058 1435 1072 1420 c 128,-1,6
 1086 1405 1086 1405 1093.5 1386.5 c 128,-1,7
 1101 1368 1101 1368 1101 1349 c 0,8,9
 1101 1337 1101 1337 1098 1324 c 2,10,-1
 779 78 l 2,11,12
 770 44 770 44 742.5 22 c 128,-1,13
 715 0 715 0 678 0 c 0,14,15
 654 0 654 0 635.5 9 c 128,-1,16
 617 18 617 18 603.5 32 c 128,-1,17
 590 46 590 46 582.5 64.5 c 128,-1,18
 575 83 575 83 575 101 c 0,19,20
 575 108 575 108 576 115 c 128,-1,21
 577 122 577 122 579 129 c 2,22,-1
 738 752 l 1,23,-1
 896 1375 l 1,0,1
1254 673 m 0,24,25
 1306 673 1306 673 1357.5 650 c 128,-1,26
 1409 627 1409 627 1450 583.5 c 128,-1,27
 1491 540 1491 540 1516.5 478 c 128,-1,28
 1542 416 1542 416 1542 337 c 0,29,30
 1542 269 1542 269 1519.5 208 c 128,-1,31
 1497 147 1497 147 1458 101 c 128,-1,32
 1419 55 1419 55 1366.5 27.5 c 128,-1,33
 1314 0 1314 0 1254 0 c 0,34,35
 1206 0 1206 0 1155.5 21 c 128,-1,36
 1105 42 1105 42 1063 84.5 c 128,-1,37
 1021 127 1021 127 994.5 190 c 128,-1,38
 968 253 968 253 968 337 c 0,39,40
 968 414 968 414 992 476 c 128,-1,41
 1016 538 1016 538 1056.5 581.5 c 128,-1,42
 1097 625 1097 625 1148 649 c 128,-1,43
 1199 673 1199 673 1254 673 c 0,24,25
1303 437 m 0,44,45
 1290 453 1290 453 1278 459.5 c 128,-1,46
 1266 466 1266 466 1254 466 c 256,47,48
 1242 466 1242 466 1228.5 457.5 c 128,-1,49
 1215 449 1215 449 1203 433 c 128,-1,50
 1191 417 1191 417 1183 393 c 128,-1,51
 1175 369 1175 369 1175 337 c 0,52,53
 1175 311 1175 311 1181 287 c 128,-1,54
 1187 263 1187 263 1198 245.5 c 128,-1,55
 1209 228 1209 228 1223 217.5 c 128,-1,56
 1237 207 1237 207 1254 207 c 256,57,58
 1271 207 1271 207 1285.5 218 c 128,-1,59
 1300 229 1300 229 1311 247 c 128,-1,60
 1322 265 1322 265 1328 289 c 128,-1,61
 1334 313 1334 313 1334 337 c 0,62,63
 1334 373 1334 373 1324.5 397 c 128,-1,64
 1315 421 1315 421 1303 437 c 0,44,45
405 1452 m 0,65,66
 457 1452 457 1452 508 1428.5 c 128,-1,67
 559 1405 559 1405 600 1361.5 c 128,-1,68
 641 1318 641 1318 666.5 1255.5 c 128,-1,69
 692 1193 692 1193 692 1115 c 0,70,71
 692 1045 692 1045 669.5 983.5 c 128,-1,72
 647 922 647 922 607.5 876.5 c 128,-1,73
 568 831 568 831 516 805 c 128,-1,74
 464 779 464 779 405 779 c 256,75,76
 346 779 346 779 294 804.5 c 128,-1,77
 242 830 242 830 203 875.5 c 128,-1,78
 164 921 164 921 141 982.5 c 128,-1,79
 118 1044 118 1044 118 1115 c 0,80,81
 118 1182 118 1182 139.5 1243 c 128,-1,82
 161 1304 161 1304 199.5 1350.5 c 128,-1,83
 238 1397 238 1397 290.5 1424.5 c 128,-1,84
 343 1452 343 1452 405 1452 c 0,65,66
453 1217 m 1,85,86
 427 1245 427 1245 405 1245 c 0,87,88
 381 1245 381 1245 366 1230 c 128,-1,89
 351 1215 351 1215 342 1193.5 c 128,-1,90
 333 1172 333 1172 329 1150 c 128,-1,91
 325 1128 325 1128 325 1115 c 0,92,93
 325 1089 325 1089 331.5 1065.5 c 128,-1,94
 338 1042 338 1042 349.5 1024 c 128,-1,95
 361 1006 361 1006 375 996.5 c 128,-1,96
 389 987 389 987 405 987 c 0,97,98
 408 987 408 987 421 991 c 128,-1,99
 434 995 434 995 448 1008 c 128,-1,100
 462 1021 462 1021 473 1046.5 c 128,-1,101
 484 1072 484 1072 484 1115 c 0,102,103
 484 1146 484 1146 475 1172.5 c 128,-1,104
 466 1199 466 1199 453 1217 c 1,85,86
EndSplineSet
EndChar
StartChar: parenright
Encoding: 41 41 6
Width: 672
Flags: W
LayerCount: 2
Back
Fore
SplineSet
123 1395 m 0,0,1
 105 1422 105 1422 105 1450 c 0,2,3
 105 1470 105 1470 112.5 1489 c 128,-1,4
 120 1508 120 1508 133.5 1523 c 128,-1,5
 147 1538 147 1538 166.5 1547 c 128,-1,6
 186 1556 186 1556 209 1556 c 0,7,8
 238 1556 238 1556 260 1543.5 c 128,-1,9
 282 1531 282 1531 296 1509 c 0,10,11
 433 1299 433 1299 502.5 1087 c 128,-1,12
 572 875 572 875 572 661 c 0,13,14
 572 457 572 457 519 256 c 128,-1,15
 466 55 466 55 356 -150 c 0,16,17
 342 -176 342 -176 317.5 -191 c 128,-1,18
 293 -206 293 -206 262 -206 c 0,19,20
 241 -206 241 -206 222 -197.5 c 128,-1,21
 203 -189 203 -189 189.5 -174.5 c 128,-1,22
 176 -160 176 -160 168 -141.5 c 128,-1,23
 160 -123 160 -123 160 -102 c 0,24,25
 160 -78 160 -78 172 -54 c 0,26,27
 222 41 222 41 259 132.5 c 128,-1,28
 296 224 296 224 319.5 313 c 128,-1,29
 343 402 343 402 354.5 490.5 c 128,-1,30
 366 579 366 579 366 669 c 1,31,32
 361 862 361 862 300 1041 c 128,-1,33
 239 1220 239 1220 123 1395 c 0,0,1
EndSplineSet
EndChar
StartChar: asterisk
Encoding: 42 42 76
Width: 957
Flags: W
LayerCount: 2
Back
Fore
SplineSet
375 1348 m 2,0,1
 375 1369 375 1369 383 1388 c 128,-1,2
 391 1407 391 1407 405.5 1421.5 c 128,-1,3
 420 1436 420 1436 438.5 1444 c 128,-1,4
 457 1452 457 1452 479 1452 c 0,5,6
 500 1452 500 1452 519 1444 c 128,-1,7
 538 1436 538 1436 552 1421.5 c 128,-1,8
 566 1407 566 1407 574.5 1388.5 c 128,-1,9
 583 1370 583 1370 583 1348 c 2,10,-1
 583 1217 l 1,11,-1
 697 1282 l 2,12,13
 720 1296 720 1296 747 1296 c 0,14,15
 768 1296 768 1296 787 1288 c 128,-1,16
 806 1280 806 1280 820 1267 c 128,-1,17
 834 1254 834 1254 843 1235 c 128,-1,18
 852 1216 852 1216 852 1194 c 0,19,20
 852 1164 852 1164 838 1140 c 128,-1,21
 824 1116 824 1116 801 1104 c 1,22,-1
 686 1038 l 1,23,-1
 801 971 l 2,24,25
 824 957 824 957 838 933.5 c 128,-1,26
 852 910 852 910 852 880 c 0,27,28
 852 855 852 855 842 836 c 128,-1,29
 832 817 832 817 817 804 c 128,-1,30
 802 791 802 791 783 784.5 c 128,-1,31
 764 778 764 778 746 778 c 1,32,33
 732 777 732 777 720.5 781 c 128,-1,34
 709 785 709 785 697 792 c 2,35,-1
 583 858 l 1,36,-1
 583 726 l 2,37,38
 583 705 583 705 574.5 686 c 128,-1,39
 566 667 566 667 552 653 c 128,-1,40
 538 639 538 639 519 630.5 c 128,-1,41
 500 622 500 622 479 622 c 0,42,43
 457 622 457 622 438.5 630.5 c 128,-1,44
 420 639 420 639 405.5 653 c 128,-1,45
 391 667 391 667 383 686 c 128,-1,46
 375 705 375 705 375 726 c 2,47,-1
 375 858 l 1,48,-1
 261 792 l 2,49,50
 238 778 238 778 211 778 c 0,51,52
 191 778 191 778 171.5 785.5 c 128,-1,53
 152 793 152 793 137.5 807 c 128,-1,54
 123 821 123 821 114 839.5 c 128,-1,55
 105 858 105 858 105 882 c 0,56,57
 105 912 105 912 119.5 934.5 c 128,-1,58
 134 957 134 957 157 971 c 2,59,-1
 272 1038 l 1,60,-1
 157 1104 l 1,61,62
 134 1115 134 1115 119.5 1139 c 128,-1,63
 105 1163 105 1163 105 1193 c 0,64,65
 105 1214 105 1214 113.5 1232.5 c 128,-1,66
 122 1251 122 1251 136 1265.5 c 128,-1,67
 150 1280 150 1280 169.5 1288 c 128,-1,68
 189 1296 189 1296 210 1296 c 0,69,70
 236 1297 236 1297 261 1282 c 2,71,-1
 375 1217 l 1,72,-1
 375 1348 l 2,0,1
EndSplineSet
EndChar
StartChar: plus
Encoding: 43 43 12
Width: 819
Flags: W
LayerCount: 2
Back
Fore
SplineSet
306 622 m 2,0,1
 306 644 306 644 314 662.5 c 128,-1,2
 322 681 322 681 336.5 695.5 c 128,-1,3
 351 710 351 710 369.5 718 c 128,-1,4
 388 726 388 726 410 726 c 0,5,6
 430 726 430 726 449.5 718 c 128,-1,7
 469 710 469 710 482.5 695.5 c 128,-1,8
 496 681 496 681 504.5 662 c 128,-1,9
 513 643 513 643 513 622 c 2,10,-1
 513 519 l 1,11,-1
 617 519 l 2,12,13
 638 519 638 519 657 510.5 c 128,-1,14
 676 502 676 502 690 488 c 128,-1,15
 704 474 704 474 712 454.5 c 128,-1,16
 720 435 720 435 720 415 c 0,17,18
 720 394 720 394 712 375 c 128,-1,19
 704 356 704 356 690 342 c 128,-1,20
 676 328 676 328 657 320 c 128,-1,21
 638 312 638 312 617 312 c 2,22,-1
 513 312 l 1,23,-1
 513 207 l 2,24,25
 513 187 513 187 504.5 168 c 128,-1,26
 496 149 496 149 482.5 135 c 128,-1,27
 469 121 469 121 450 112.5 c 128,-1,28
 431 104 431 104 410 104 c 0,29,30
 386 104 386 104 367 113 c 128,-1,31
 348 122 348 122 334 136 c 128,-1,32
 320 150 320 150 313 169 c 128,-1,33
 306 188 306 188 306 207 c 2,34,-1
 306 312 l 1,35,-1
 201 312 l 2,36,37
 181 312 181 312 161.5 320 c 128,-1,38
 142 328 142 328 128.5 342 c 128,-1,39
 115 356 115 356 106.5 375 c 128,-1,40
 98 394 98 394 98 415 c 0,41,42
 98 435 98 435 106 454.5 c 128,-1,43
 114 474 114 474 128 488 c 128,-1,44
 142 502 142 502 161 510.5 c 128,-1,45
 180 519 180 519 201 519 c 2,46,-1
 306 519 l 1,47,-1
 306 571 l 1,48,-1
 306 622 l 2,0,1
EndSplineSet
EndChar
StartChar: period
Encoding: 46 46 97
Width: 403
Flags: W
LayerCount: 2
Back
Fore
SplineSet
305 104 m 2,0,1
 305 60 305 60 275.5 30.5 c 128,-1,2
 246 1 246 1 201 1 c 0,3,4
 179 1 179 1 160.5 9.5 c 128,-1,5
 142 18 142 18 128 32 c 128,-1,6
 114 46 114 46 106 65 c 128,-1,7
 98 84 98 84 98 104 c 2,8,-1
 98 106 l 2,9,10
 98 127 98 127 106 145.5 c 128,-1,11
 114 164 114 164 128 178.5 c 128,-1,12
 142 193 142 193 160.5 201 c 128,-1,13
 179 209 179 209 201 209 c 0,14,15
 222 209 222 209 241 201.5 c 128,-1,16
 260 194 260 194 274 180 c 128,-1,17
 288 166 288 166 296.5 147.5 c 128,-1,18
 305 129 305 129 305 106 c 2,19,-1
 305 105 l 1,20,-1
 305 104 l 2,0,1
EndSplineSet
EndChar
StartChar: one
Encoding: 49 49 75
Width: 611
Flags: W
LayerCount: 2
Back
Fore
SplineSet
513 104 m 2,0,1
 513 83 513 83 504.5 64 c 128,-1,2
 496 45 496 45 482.5 31 c 128,-1,3
 469 17 469 17 449.5 8.5 c 128,-1,4
 430 0 430 0 410 0 c 0,5,6
 388 0 388 0 369.5 8.5 c 128,-1,7
 351 17 351 17 336.5 31 c 128,-1,8
 322 45 322 45 314 64 c 128,-1,9
 306 83 306 83 306 104 c 2,10,-1
 306 1099 l 1,11,-1
 275 1067 l 2,12,13
 246 1038 246 1038 201 1038 c 0,14,15
 179 1038 179 1038 160.5 1046 c 128,-1,16
 142 1054 142 1054 128 1068.5 c 128,-1,17
 114 1083 114 1083 106 1101.5 c 128,-1,18
 98 1120 98 1120 98 1141 c 0,19,20
 98 1184 98 1184 129 1215 c 2,21,-1
 336 1421 l 1,22,23
 365 1452 365 1452 410 1452 c 0,24,25
 430 1452 430 1452 449.5 1444 c 128,-1,26
 469 1436 469 1436 482.5 1421.5 c 128,-1,27
 496 1407 496 1407 504.5 1388 c 128,-1,28
 513 1369 513 1369 513 1348 c 2,29,-1
 513 726 l 1,30,-1
 513 104 l 2,0,1
EndSplineSet
EndChar
StartChar: two
Encoding: 50 50 94
Width: 1027
Flags: W
LayerCount: 2
Back
Fore
SplineSet
821 207 m 2,0,1
 841 207 841 207 860.5 199 c 128,-1,2
 880 191 880 191 894 177 c 128,-1,3
 908 163 908 163 916.5 144 c 128,-1,4
 925 125 925 125 925 104 c 256,5,6
 925 83 925 83 916.5 64 c 128,-1,7
 908 45 908 45 894 31 c 128,-1,8
 880 17 880 17 861 8.5 c 128,-1,9
 842 0 842 0 821 0 c 2,10,-1
 201 0 l 2,11,12
 180 0 180 0 161 8.5 c 128,-1,13
 142 17 142 17 128 31 c 128,-1,14
 114 45 114 45 106 64 c 128,-1,15
 98 83 98 83 98 104 c 0,16,17
 98 127 98 127 106 144.5 c 128,-1,18
 114 162 114 162 125 173 c 1,19,-1
 680 912 l 2,20,21
 701 939 701 939 711 971 c 128,-1,22
 721 1003 721 1003 721 1037 c 0,23,24
 721 1078 721 1078 705 1116 c 128,-1,25
 689 1154 689 1154 661 1182.5 c 128,-1,26
 633 1211 633 1211 594.5 1228 c 128,-1,27
 556 1245 556 1245 513 1245 c 0,28,29
 476 1245 476 1245 444 1233.5 c 128,-1,30
 412 1222 412 1222 386 1202 c 128,-1,31
 360 1182 360 1182 341.5 1155.5 c 128,-1,32
 323 1129 323 1129 314 1100 c 0,33,34
 304 1067 304 1067 277.5 1046 c 128,-1,35
 251 1025 251 1025 216 1025 c 0,36,37
 194 1025 194 1025 174.5 1034.5 c 128,-1,38
 155 1044 155 1044 141 1058.5 c 128,-1,39
 127 1073 127 1073 119 1091.5 c 128,-1,40
 111 1110 111 1110 111 1129 c 0,41,42
 111 1160 111 1160 126 1194.5 c 128,-1,43
 141 1229 141 1229 164 1262 c 128,-1,44
 187 1295 187 1295 214.5 1324 c 128,-1,45
 242 1353 242 1353 267 1372 c 0,46,47
 320 1411 320 1411 384 1431.5 c 128,-1,48
 448 1452 448 1452 513 1452 c 0,49,50
 593 1452 593 1452 667.5 1421.5 c 128,-1,51
 742 1391 742 1391 800.5 1335.5 c 128,-1,52
 859 1280 859 1280 894 1204 c 128,-1,53
 929 1128 929 1128 929 1037 c 0,54,55
 929 1010 929 1010 923.5 978 c 128,-1,56
 918 946 918 946 907.5 913 c 128,-1,57
 897 880 897 880 881.5 847.5 c 128,-1,58
 866 815 866 815 845 788 c 2,59,-1
 409 207 l 1,60,-1
 615 207 l 1,61,-1
 821 207 l 2,0,1
EndSplineSet
EndChar
StartChar: six
Encoding: 54 54 90
Width: 1130
Flags: W
LayerCount: 2
Back
Fore
SplineSet
943 1260 m 0,0,1
 953 1239 953 1239 953 1216 c 0,2,3
 953 1195 953 1195 945 1176.5 c 128,-1,4
 937 1158 937 1158 922.5 1143 c 128,-1,5
 908 1128 908 1128 889.5 1119.5 c 128,-1,6
 871 1111 871 1111 849 1111 c 0,7,8
 825 1111 825 1111 811 1118 c 128,-1,9
 797 1125 797 1125 787 1136.5 c 128,-1,10
 777 1148 777 1148 768.5 1161.5 c 128,-1,11
 760 1175 760 1175 746 1189.5 c 128,-1,12
 732 1204 732 1204 711 1217 c 128,-1,13
 690 1230 690 1230 655 1239 c 0,14,15
 642 1243 642 1243 628.5 1244 c 128,-1,16
 615 1245 615 1245 602 1245 c 0,17,18
 559 1245 559 1245 517 1222 c 128,-1,19
 475 1199 475 1199 437.5 1154 c 128,-1,20
 400 1109 400 1109 369.5 1042.5 c 128,-1,21
 339 976 339 976 321 890 c 1,22,23
 369 912 369 912 431.5 923 c 128,-1,24
 494 934 494 934 569 934 c 0,25,26
 668 934 668 934 752.5 898 c 128,-1,27
 837 862 837 862 899 799 c 128,-1,28
 961 736 961 736 996.5 650.5 c 128,-1,29
 1032 565 1032 565 1032 467 c 0,30,31
 1032 364 1032 364 1001.5 278.5 c 128,-1,32
 971 193 971 193 913 131 c 128,-1,33
 855 69 855 69 772 34.5 c 128,-1,34
 689 0 689 0 584 0 c 0,35,36
 462 0 462 0 371 52 c 128,-1,37
 280 104 280 104 219.5 199 c 128,-1,38
 159 294 159 294 128.5 428 c 128,-1,39
 98 562 98 562 98 726 c 0,40,41
 98 816 98 816 114 904.5 c 128,-1,42
 130 993 130 993 160 1073.5 c 128,-1,43
 190 1154 190 1154 234 1223.5 c 128,-1,44
 278 1293 278 1293 334 1343.5 c 128,-1,45
 390 1394 390 1394 457.5 1423 c 128,-1,46
 525 1452 525 1452 602 1452 c 0,47,48
 655 1452 655 1452 707 1439.5 c 128,-1,49
 759 1427 759 1427 803.5 1403 c 128,-1,50
 848 1379 848 1379 884 1343 c 128,-1,51
 920 1307 920 1307 943 1260 c 0,0,1
314 566 m 1,52,53
 334 390 334 390 401 298.5 c 128,-1,54
 468 207 468 207 584 207 c 0,55,56
 707 207 707 207 766 273.5 c 128,-1,57
 825 340 825 340 825 467 c 0,58,59
 825 514 825 514 810 558.5 c 128,-1,60
 795 603 795 603 765 639 c 128,-1,61
 735 675 735 675 690 698.5 c 128,-1,62
 645 722 645 722 583 727 c 1,63,64
 524 727 524 727 484.5 722 c 128,-1,65
 445 717 445 717 418.5 708 c 128,-1,66
 392 699 392 699 375 684 c 128,-1,67
 358 669 358 669 344 651 c 0,68,69
 344 650 344 650 338 637 c 128,-1,70
 332 624 332 624 326 609 c 128,-1,71
 320 594 320 594 316 581 c 128,-1,72
 312 568 312 568 314 568 c 1,73,-1
 314 566 l 1,52,53
EndSplineSet
EndChar
StartChar: eight
Encoding: 56 56 87
Width: 1130
Flags: W
LayerCount: 2
Back
Fore
SplineSet
835 847 m 1,0,1
 933 776 933 776 982.5 676.5 c 128,-1,2
 1032 577 1032 577 1032 467 c 0,3,4
 1032 373 1032 373 996.5 288.5 c 128,-1,5
 961 204 961 204 898.5 140.5 c 128,-1,6
 836 77 836 77 750.5 38.5 c 128,-1,7
 665 0 665 0 565 0 c 0,8,9
 474 0 474 0 389.5 34.5 c 128,-1,10
 305 69 305 69 240.5 131 c 128,-1,11
 176 193 176 193 137 279 c 128,-1,12
 98 365 98 365 98 467 c 0,13,14
 98 578 98 578 147.5 676 c 128,-1,15
 197 774 197 774 295 847 c 1,16,17
 251 894 251 894 226 957.5 c 128,-1,18
 201 1021 201 1021 201 1089 c 0,19,20
 201 1151 201 1151 225 1215.5 c 128,-1,21
 249 1280 249 1280 295 1332.5 c 128,-1,22
 341 1385 341 1385 409 1418.5 c 128,-1,23
 477 1452 477 1452 565 1452 c 0,24,25
 641 1452 641 1452 707 1423 c 128,-1,26
 773 1394 773 1394 822.5 1344.5 c 128,-1,27
 872 1295 872 1295 900 1229 c 128,-1,28
 928 1163 928 1163 928 1089 c 0,29,30
 928 1018 928 1018 904 957.5 c 128,-1,31
 880 897 880 897 835 847 c 1,0,1
748 651 m 1,32,33
 708 688 708 688 660 707 c 128,-1,34
 612 726 612 726 565 726 c 0,35,36
 519 726 519 726 473 708 c 128,-1,37
 427 690 427 690 389.5 656.5 c 128,-1,38
 352 623 352 623 329 575 c 128,-1,39
 306 527 306 527 306 467 c 0,40,41
 306 420 306 420 324 373 c 128,-1,42
 342 326 342 326 376 289.5 c 128,-1,43
 410 253 410 253 457.5 230 c 128,-1,44
 505 207 505 207 565 207 c 0,45,46
 612 207 612 207 658.5 225.5 c 128,-1,47
 705 244 705 244 741.5 278 c 128,-1,48
 778 312 778 312 801.5 360 c 128,-1,49
 825 408 825 408 825 467 c 0,50,51
 825 522 825 522 803.5 569.5 c 128,-1,52
 782 617 782 617 748 651 c 1,32,33
455 979 m 0,53,54
 475 958 475 958 505.5 946 c 128,-1,55
 536 934 536 934 565 934 c 0,56,57
 592 934 592 934 619.5 944 c 128,-1,58
 647 954 647 954 669.5 974 c 128,-1,59
 692 994 692 994 706 1023 c 128,-1,60
 720 1052 720 1052 720 1089 c 0,61,62
 720 1114 720 1114 710.5 1141.5 c 128,-1,63
 701 1169 701 1169 681 1192.5 c 128,-1,64
 661 1216 661 1216 632 1230.5 c 128,-1,65
 603 1245 603 1245 565 1245 c 0,66,67
 536 1245 536 1245 508 1233.5 c 128,-1,68
 480 1222 480 1222 458 1201 c 128,-1,69
 436 1180 436 1180 423 1151 c 128,-1,70
 410 1122 410 1122 410 1089 c 0,71,72
 410 1027 410 1027 455 979 c 0,53,54
EndSplineSet
EndChar
StartChar: equal
Encoding: 61 61 19
Width: 1098
Flags: W
LayerCount: 2
Back
Fore
SplineSet
201 104 m 2,0,1
 179 104 179 104 160.5 112.5 c 128,-1,2
 142 121 142 121 128 135 c 128,-1,3
 114 149 114 149 106 168 c 128,-1,4
 98 187 98 187 98 207 c 0,5,6
 98 228 98 228 106 247 c 128,-1,7
 114 266 114 266 128 280.5 c 128,-1,8
 142 295 142 295 161 303.5 c 128,-1,9
 180 312 180 312 201 312 c 2,10,-1
 896 312 l 2,11,12
 917 312 917 312 936 303.5 c 128,-1,13
 955 295 955 295 969 280.5 c 128,-1,14
 983 266 983 266 991 247 c 128,-1,15
 999 228 999 228 999 207 c 0,16,17
 999 187 999 187 991 168 c 128,-1,18
 983 149 983 149 969 135 c 128,-1,19
 955 121 955 121 936.5 112.5 c 128,-1,20
 918 104 918 104 896 104 c 2,21,-1
 201 104 l 2,0,1
201 518 m 2,22,23
 180 518 180 518 161 526.5 c 128,-1,24
 142 535 142 535 128 549 c 128,-1,25
 114 563 114 563 106 581.5 c 128,-1,26
 98 600 98 600 98 622 c 0,27,28
 98 643 98 643 106 661.5 c 128,-1,29
 114 680 114 680 128 694.5 c 128,-1,30
 142 709 142 709 160.5 717 c 128,-1,31
 179 725 179 725 201 725 c 2,32,-1
 896 725 l 2,33,34
 917 725 917 725 936 717 c 128,-1,35
 955 709 955 709 969 695 c 128,-1,36
 983 681 983 681 991 662 c 128,-1,37
 999 643 999 643 999 622 c 0,38,39
 999 600 999 600 991 581.5 c 128,-1,40
 983 563 983 563 969 549 c 128,-1,41
 955 535 955 535 936 526.5 c 128,-1,42
 917 518 917 518 896 518 c 2,43,-1
 201 518 l 2,22,23
EndSplineSet
EndChar
StartChar: question
Encoding: 63 63 20
Width: 1026
Flags: W
LayerCount: 2
Back
Fore
SplineSet
306 1038 m 0,0,1
 306 1016 306 1016 297.5 997.5 c 128,-1,2
 289 979 289 979 274.5 964.5 c 128,-1,3
 260 950 260 950 241.5 942 c 128,-1,4
 223 934 223 934 201 934 c 0,5,6
 180 934 180 934 161 942 c 128,-1,7
 142 950 142 950 128 964.5 c 128,-1,8
 114 979 114 979 106 997.5 c 128,-1,9
 98 1016 98 1016 98 1038 c 0,10,11
 98 1107 98 1107 116.5 1162.5 c 128,-1,12
 135 1218 135 1218 164 1261 c 128,-1,13
 193 1304 193 1304 229 1336.5 c 128,-1,14
 265 1369 265 1369 302.5 1391 c 128,-1,15
 340 1413 340 1413 374 1426 c 128,-1,16
 408 1439 408 1439 431 1444 c 0,17,18
 451 1448 451 1448 471 1450 c 128,-1,19
 491 1452 491 1452 513 1452 c 0,20,21
 584 1452 584 1452 649 1428.5 c 128,-1,22
 714 1405 714 1405 768.5 1361.5 c 128,-1,23
 823 1318 823 1318 862 1256.5 c 128,-1,24
 901 1195 901 1195 920 1118 c 0,25,26
 928 1082 928 1082 928 1038 c 0,27,28
 928 927 928 927 890 852.5 c 128,-1,29
 852 778 852 778 796 736 c 1,30,31
 788 728 788 728 773.5 717 c 128,-1,32
 759 706 759 706 741.5 692.5 c 128,-1,33
 724 679 724 679 706 663.5 c 128,-1,34
 688 648 688 648 673 631 c 0,35,36
 617 567 617 567 617 506 c 0,37,38
 617 484 617 484 608.5 465.5 c 128,-1,39
 600 447 600 447 586 433 c 128,-1,40
 572 419 572 419 553 411 c 128,-1,41
 534 403 534 403 513 403 c 256,42,43
 492 403 492 403 473.5 411 c 128,-1,44
 455 419 455 419 441 432.5 c 128,-1,45
 427 446 427 446 418.5 465 c 128,-1,46
 410 484 410 484 410 506 c 0,47,48
 410 578 410 578 434 636.5 c 128,-1,49
 458 695 458 695 494 741 c 128,-1,50
 530 787 530 787 572 822.5 c 128,-1,51
 614 858 614 858 651 884 c 1,52,-1
 650 884 l 1,53,54
 652 885 652 885 654 888 c 0,55,56
 656 890 656 890 660 892.5 c 128,-1,57
 664 895 664 895 670 899 c 0,58,59
 696 921 696 921 708 957.5 c 128,-1,60
 720 994 720 994 720 1038 c 0,61,62
 720 1081 720 1081 708 1112 c 128,-1,63
 696 1143 696 1143 679.5 1163.5 c 128,-1,64
 663 1184 663 1184 648 1195.5 c 128,-1,65
 633 1207 633 1207 628 1211 c 0,66,67
 597 1231 597 1231 570.5 1238 c 128,-1,68
 544 1245 544 1245 513 1245 c 0,69,70
 484 1245 484 1245 461.5 1240.5 c 128,-1,71
 439 1236 439 1236 418.5 1225.5 c 128,-1,72
 398 1215 398 1215 379 1197 c 128,-1,73
 360 1179 360 1179 340 1153 c 0,74,75
 333 1144 333 1144 326.5 1129 c 128,-1,76
 320 1114 320 1114 316 1098 c 128,-1,77
 312 1082 312 1082 309 1066.5 c 128,-1,78
 306 1051 306 1051 306 1038 c 0,0,1
623 104 m 2,79,80
 623 82 623 82 614.5 63 c 128,-1,81
 606 44 606 44 592.5 30.5 c 128,-1,82
 579 17 579 17 559.5 9 c 128,-1,83
 540 1 540 1 520 1 c 0,84,85
 476 1 476 1 446.5 30.5 c 128,-1,86
 417 60 417 60 417 104 c 2,87,-1
 417 106 l 2,88,89
 417 128 417 128 424.5 146.5 c 128,-1,90
 432 165 432 165 446 179 c 128,-1,91
 460 193 460 193 478.5 201 c 128,-1,92
 497 209 497 209 520 209 c 0,93,94
 540 209 540 209 559 201.5 c 128,-1,95
 578 194 578 194 592 180 c 128,-1,96
 606 166 606 166 614.5 147.5 c 128,-1,97
 623 129 623 129 623 106 c 2,98,-1
 623 105 l 1,99,-1
 623 104 l 2,79,80
EndSplineSet
EndChar
StartChar: at
Encoding: 64 64 5
Width: 1527
Flags: W
LayerCount: 2
Back
Fore
SplineSet
921 1106 m 1,0,1
 932 1119 932 1119 953.5 1131 c 128,-1,2
 975 1143 975 1143 1000 1143 c 0,3,4
 1021 1143 1021 1143 1039.5 1134.5 c 128,-1,5
 1058 1126 1058 1126 1072.5 1112 c 128,-1,6
 1087 1098 1087 1098 1095 1078.5 c 128,-1,7
 1103 1059 1103 1059 1103 1038 c 2,8,-1
 1097 525 l 1,9,10
 1122 527 1122 527 1144.5 545.5 c 128,-1,11
 1167 564 1167 564 1184.5 592.5 c 128,-1,12
 1202 621 1202 621 1212 656.5 c 128,-1,13
 1222 692 1222 692 1222 726 c 0,14,15
 1222 845 1222 845 1194 941.5 c 128,-1,16
 1166 1038 1166 1038 1109 1105 c 128,-1,17
 1052 1172 1052 1172 966 1208.5 c 128,-1,18
 880 1245 880 1245 764 1245 c 0,19,20
 675 1245 675 1245 592.5 1206 c 128,-1,21
 510 1167 510 1167 446 1098 c 128,-1,22
 382 1029 382 1029 344 934 c 128,-1,23
 306 839 306 839 306 726 c 0,24,25
 306 619 306 619 342 524.5 c 128,-1,26
 378 430 378 430 441 359.5 c 128,-1,27
 504 289 504 289 587 248 c 128,-1,28
 670 207 670 207 764 207 c 0,29,30
 789 207 789 207 817.5 210 c 128,-1,31
 846 213 846 213 877.5 222 c 128,-1,32
 909 231 909 231 943.5 247.5 c 128,-1,33
 978 264 978 264 1015 293 c 1,34,35
 1043 313 1043 313 1076 313 c 0,36,37
 1099 313 1099 313 1118 305 c 128,-1,38
 1137 297 1137 297 1151.5 282 c 128,-1,39
 1166 267 1166 267 1173.5 248 c 128,-1,40
 1181 229 1181 229 1181 208 c 0,41,42
 1181 182 1181 182 1167 160.5 c 128,-1,43
 1153 139 1153 139 1132.5 121.5 c 128,-1,44
 1112 104 1112 104 1090 92.5 c 128,-1,45
 1068 81 1068 81 1053 73 c 0,46,47
 1018 54 1018 54 979.5 40.5 c 128,-1,48
 941 27 941 27 904 18 c 128,-1,49
 867 9 867 9 830.5 4.5 c 128,-1,50
 794 0 794 0 764 0 c 0,51,52
 678 0 678 0 595.5 24 c 128,-1,53
 513 48 513 48 439.5 93 c 128,-1,54
 366 138 366 138 303.5 202.5 c 128,-1,55
 241 267 241 267 195 347.5 c 128,-1,56
 149 428 149 428 123.5 523.5 c 128,-1,57
 98 619 98 619 98 726 c 0,58,59
 98 825 98 825 121.5 916.5 c 128,-1,60
 145 1008 145 1008 188.5 1088.5 c 128,-1,61
 232 1169 232 1169 293 1236 c 128,-1,62
 354 1303 354 1303 427.5 1351 c 128,-1,63
 501 1399 501 1399 586.5 1425.5 c 128,-1,64
 672 1452 672 1452 764 1452 c 0,65,66
 906 1452 906 1452 1028 1406 c 128,-1,67
 1150 1360 1150 1360 1239.5 1268.5 c 128,-1,68
 1329 1177 1329 1177 1379 1041.5 c 128,-1,69
 1429 906 1429 906 1429 726 c 0,70,71
 1429 643 1429 643 1402 568.5 c 128,-1,72
 1375 494 1375 494 1327.5 438 c 128,-1,73
 1280 382 1280 382 1217 349 c 128,-1,74
 1154 316 1154 316 1082 316 c 2,75,-1
 1080 316 l 2,76,77
 1046 316 1046 316 1012.5 328.5 c 128,-1,78
 979 341 979 341 949 370 c 1,79,80
 905 341 905 341 860 328.5 c 128,-1,81
 815 316 815 316 762 316 c 0,82,83
 688 316 688 316 626.5 341 c 128,-1,84
 565 366 565 366 520.5 417 c 128,-1,85
 476 468 476 468 451 545.5 c 128,-1,86
 426 623 426 623 426 729 c 0,87,88
 426 934 426 934 511 1038.5 c 128,-1,89
 596 1143 596 1143 762 1143 c 0,90,91
 849 1143 849 1143 921 1106 c 1,0,1
852 898 m 1,92,93
 834 919 834 919 811.5 927.5 c 128,-1,94
 789 936 789 936 762 936 c 0,95,96
 700 936 700 936 666.5 884.5 c 128,-1,97
 633 833 633 833 633 729 c 0,98,99
 633 622 633 622 663 573 c 128,-1,100
 693 524 693 524 762 524 c 0,101,102
 800 524 800 524 824.5 538 c 128,-1,103
 849 552 849 552 864 579 c 128,-1,104
 879 606 879 606 884.5 644 c 128,-1,105
 890 682 890 682 890 729 c 0,106,107
 890 779 890 779 881.5 824 c 128,-1,108
 873 869 873 869 852 898 c 1,92,93
EndSplineSet
EndChar
StartChar: A
Encoding: 65 65 46
Width: 1249
Flags: W
LayerCount: 2
Back
Fore
SplineSet
309 71 m 2,0,1
 298 39 298 39 271.5 20 c 128,-1,2
 245 1 245 1 210 1 c 0,3,4
 188 1 188 1 168.5 9.5 c 128,-1,5
 149 18 149 18 135.5 32 c 128,-1,6
 122 46 122 46 114 65 c 128,-1,7
 106 84 106 84 106 103 c 0,8,9
 106 119 106 119 112 136 c 2,10,-1
 528 1382 l 2,11,12
 539 1412 539 1412 565 1431.5 c 128,-1,13
 591 1451 591 1451 625 1451 c 0,14,15
 656 1451 656 1451 684.5 1432 c 128,-1,16
 713 1413 713 1413 723 1381 c 2,17,-1
 1138 136 l 2,18,19
 1141 127 1141 127 1142 118.5 c 128,-1,20
 1143 110 1143 110 1143 102 c 0,21,22
 1143 81 1143 81 1134.5 62 c 128,-1,23
 1126 43 1126 43 1112 30 c 128,-1,24
 1098 17 1098 17 1079 9 c 128,-1,25
 1060 1 1060 1 1040 1 c 0,26,27
 1004 1 1004 1 978 20.5 c 128,-1,28
 952 40 952 40 942 71 c 2,29,-1
 862 312 l 1,30,-1
 389 312 l 1,31,-1
 309 71 l 2,0,1
793 519 m 1,32,-1
 625 1022 l 1,33,-1
 457 519 l 1,34,-1
 793 519 l 1,32,-1
EndSplineSet
EndChar
StartChar: C
Encoding: 67 67 44
Width: 1186
Flags: W
LayerCount: 2
Back
Fore
SplineSet
887 364 m 0,0,1
 901 386 901 386 924.5 401 c 128,-1,2
 948 416 948 416 978 416 c 0,3,4
 1000 416 1000 416 1019.5 406.5 c 128,-1,5
 1039 397 1039 397 1052 382.5 c 128,-1,6
 1065 368 1065 368 1072.5 349 c 128,-1,7
 1080 330 1080 330 1080 312 c 0,8,9
 1080 292 1080 292 1070.5 270.5 c 128,-1,10
 1061 249 1061 249 1046.5 227.5 c 128,-1,11
 1032 206 1032 206 1015 187 c 128,-1,12
 998 168 998 168 984 153 c 0,13,14
 830 0 830 0 617 0 c 0,15,16
 512 0 512 0 426 29 c 128,-1,17
 340 58 340 58 276 118 c 128,-1,18
 212 178 212 178 170.5 271 c 128,-1,19
 129 364 129 364 111 490 c 0,20,21
 103 549 103 549 100.5 608 c 128,-1,22
 98 667 98 667 98 726 c 0,23,24
 98 824 98 824 107.5 915.5 c 128,-1,25
 117 1007 117 1007 140 1087.5 c 128,-1,26
 163 1168 163 1168 201.5 1235.5 c 128,-1,27
 240 1303 240 1303 297.5 1351 c 128,-1,28
 355 1399 355 1399 434 1425.5 c 128,-1,29
 513 1452 513 1452 617 1452 c 0,30,31
 690 1452 690 1452 757 1432.5 c 128,-1,32
 824 1413 824 1413 881 1378.5 c 128,-1,33
 938 1344 938 1344 983.5 1298 c 128,-1,34
 1029 1252 1029 1252 1060 1198 c 0,35,36
 1075 1171 1075 1171 1075 1146 c 0,37,38
 1075 1123 1075 1123 1066 1104 c 128,-1,39
 1057 1085 1057 1085 1043 1071 c 128,-1,40
 1029 1057 1029 1057 1010.5 1050 c 128,-1,41
 992 1043 992 1043 972 1043 c 0,42,43
 943 1043 943 1043 925 1054 c 128,-1,44
 907 1065 907 1065 892.5 1082.5 c 128,-1,45
 878 1100 878 1100 864.5 1119.5 c 128,-1,46
 851 1139 851 1139 833 1157 c 1,47,48
 787 1198 787 1198 733 1221.5 c 128,-1,49
 679 1245 679 1245 617 1245 c 0,50,51
 523 1245 523 1245 462.5 1211.5 c 128,-1,52
 402 1178 402 1178 367 1112.5 c 128,-1,53
 332 1047 332 1047 319 950 c 128,-1,54
 306 853 306 853 306 726 c 0,55,56
 306 584 306 584 322 485 c 128,-1,57
 338 386 338 386 375 324 c 128,-1,58
 412 262 412 262 471.5 234.5 c 128,-1,59
 531 207 531 207 617 207 c 0,60,61
 663 207 663 207 704 220 c 128,-1,62
 745 233 745 233 779.5 254 c 128,-1,63
 814 275 814 275 841 303.5 c 128,-1,64
 868 332 868 332 887 364 c 0,0,1
EndSplineSet
EndChar
StartChar: G
Encoding: 71 71 43
Width: 1233
Flags: W
LayerCount: 2
Back
Fore
SplineSet
1077 1165 m 1,0,1
 1080 1151 1080 1151 1080 1138 c 0,2,3
 1080 1115 1080 1115 1071 1095.5 c 128,-1,4
 1062 1076 1062 1076 1048 1062.5 c 128,-1,5
 1034 1049 1034 1049 1015 1041 c 128,-1,6
 996 1033 996 1033 976 1033 c 0,7,8
 959 1033 959 1033 943 1039 c 128,-1,9
 927 1045 927 1045 913.5 1055 c 128,-1,10
 900 1065 900 1065 891 1079 c 128,-1,11
 882 1093 882 1093 878 1109 c 1,12,13
 866 1146 866 1146 845.5 1171.5 c 128,-1,14
 825 1197 825 1197 794.5 1213 c 128,-1,15
 764 1229 764 1229 720 1237 c 128,-1,16
 676 1245 676 1245 617 1245 c 0,17,18
 535 1245 535 1245 480.5 1221 c 128,-1,19
 426 1197 426 1197 391 1157 c 128,-1,20
 356 1117 356 1117 338 1064.5 c 128,-1,21
 320 1012 320 1012 313.5 955 c 128,-1,22
 307 898 307 898 306.5 840.5 c 128,-1,23
 306 783 306 783 306 733 c 0,24,25
 306 675 306 675 307.5 613 c 128,-1,26
 309 551 309 551 317 493 c 128,-1,27
 325 435 325 435 344 383 c 128,-1,28
 363 331 363 331 397 292 c 128,-1,29
 431 253 431 253 485 230 c 128,-1,30
 539 207 539 207 617 207 c 0,31,32
 703 207 703 207 761 230 c 128,-1,33
 819 253 819 253 855 302 c 128,-1,34
 891 351 891 351 908.5 430 c 128,-1,35
 926 509 926 509 928 622 c 1,36,-1
 617 622 l 2,37,38
 596 622 596 622 577 630.5 c 128,-1,39
 558 639 558 639 544 653 c 128,-1,40
 530 667 530 667 521.5 686 c 128,-1,41
 513 705 513 705 513 726 c 0,42,43
 513 748 513 748 521.5 766.5 c 128,-1,44
 530 785 530 785 544 799.5 c 128,-1,45
 558 814 558 814 577 822 c 128,-1,46
 596 830 596 830 617 830 c 2,47,-1
 1032 830 l 1,48,-1
 1032 829 l 1,49,50
 1052 829 1052 829 1071.5 821 c 128,-1,51
 1091 813 1091 813 1104.5 799 c 128,-1,52
 1118 785 1118 785 1126.5 766 c 128,-1,53
 1135 747 1135 747 1135 726 c 0,54,55
 1135 669 1135 669 1134.5 610 c 128,-1,56
 1134 551 1134 551 1128 492 c 0,57,58
 1115 363 1115 363 1076.5 270 c 128,-1,59
 1038 177 1038 177 973.5 117.5 c 128,-1,60
 909 58 909 58 819.5 29.5 c 128,-1,61
 730 1 730 1 617 1 c 0,62,63
 484 1 484 1 394 33.5 c 128,-1,64
 304 66 304 66 246.5 121.5 c 128,-1,65
 189 177 189 177 158.5 250.5 c 128,-1,66
 128 324 128 324 114.5 405 c 128,-1,67
 101 486 101 486 99.5 570.5 c 128,-1,68
 98 655 98 655 98 733 c 0,69,70
 98 810 98 810 100 893.5 c 128,-1,71
 102 977 102 977 116 1056.5 c 128,-1,72
 130 1136 130 1136 160.5 1208 c 128,-1,73
 191 1280 191 1280 249 1334.5 c 128,-1,74
 307 1389 307 1389 396 1420.5 c 128,-1,75
 485 1452 485 1452 617 1452 c 0,76,77
 720 1452 720 1452 798 1431 c 128,-1,78
 876 1410 876 1410 931.5 1372 c 128,-1,79
 987 1334 987 1334 1022 1280.5 c 128,-1,80
 1057 1227 1057 1227 1077 1165 c 1,0,1
EndSplineSet
EndChar
StartChar: I
Encoding: 73 73 38
Width: 404
Flags: W
LayerCount: 2
Back
Fore
SplineSet
98 1348 m 2,0,1
 98 1369 98 1369 106 1388 c 128,-1,2
 114 1407 114 1407 128 1421.5 c 128,-1,3
 142 1436 142 1436 161 1444 c 128,-1,4
 180 1452 180 1452 201 1452 c 0,5,6
 223 1452 223 1452 241.5 1444 c 128,-1,7
 260 1436 260 1436 274.5 1421.5 c 128,-1,8
 289 1407 289 1407 297.5 1388.5 c 128,-1,9
 306 1370 306 1370 306 1348 c 2,10,-1
 306 104 l 2,11,12
 306 83 306 83 297.5 64 c 128,-1,13
 289 45 289 45 274.5 31 c 128,-1,14
 260 17 260 17 241.5 8.5 c 128,-1,15
 223 0 223 0 201 0 c 0,16,17
 180 0 180 0 161 8.5 c 128,-1,18
 142 17 142 17 128 31 c 128,-1,19
 114 45 114 45 106 64 c 128,-1,20
 98 83 98 83 98 104 c 2,21,-1
 98 1348 l 2,0,1
EndSplineSet
EndChar
StartChar: J
Encoding: 74 74 37
Width: 1112
Flags: W
LayerCount: 2
Back
Fore
SplineSet
129 151 m 0,0,1
 98 182 98 182 98 226 c 0,2,3
 98 247 98 247 106.5 266 c 128,-1,4
 115 285 115 285 128.5 299 c 128,-1,5
 142 313 142 313 161.5 321 c 128,-1,6
 181 329 181 329 201 329 c 0,7,8
 226 329 226 329 242.5 320 c 128,-1,9
 259 311 259 311 276.5 296.5 c 128,-1,10
 294 282 294 282 316.5 265 c 128,-1,11
 339 248 339 248 375 231 c 0,12,13
 404 217 404 217 434 212 c 128,-1,14
 464 207 464 207 495 207 c 0,15,16
 537 207 537 207 583.5 219.5 c 128,-1,17
 630 232 630 232 672.5 260.5 c 128,-1,18
 715 289 715 289 749.5 337 c 128,-1,19
 784 385 784 385 801 456 c 1,20,21
 807 486 807 486 807 519 c 2,22,-1
 807 1348 l 2,23,24
 807 1369 807 1369 815 1388 c 128,-1,25
 823 1407 823 1407 837 1421.5 c 128,-1,26
 851 1436 851 1436 869.5 1444 c 128,-1,27
 888 1452 888 1452 910 1452 c 256,28,29
 932 1452 932 1452 950.5 1444 c 128,-1,30
 969 1436 969 1436 983 1421.5 c 128,-1,31
 997 1407 997 1407 1005.5 1388.5 c 128,-1,32
 1014 1370 1014 1370 1014 1348 c 2,33,-1
 1014 519 l 2,34,35
 1014 491 1014 491 1010.5 453.5 c 128,-1,36
 1007 416 1007 416 995.5 372.5 c 128,-1,37
 984 329 984 329 962 283 c 128,-1,38
 940 237 940 237 905 193 c 128,-1,39
 870 149 870 149 818.5 109.5 c 128,-1,40
 767 70 767 70 694 39 c 0,41,42
 644 18 644 18 591 9 c 128,-1,43
 538 0 538 0 495 0 c 0,44,45
 443 0 443 0 391 12 c 128,-1,46
 339 24 339 24 291 44.5 c 128,-1,47
 243 65 243 65 201 92.5 c 128,-1,48
 159 120 159 120 129 151 c 0,0,1
EndSplineSet
EndChar
StartChar: L
Encoding: 76 76 35
Width: 1130
Flags: W
LayerCount: 2
Back
Fore
SplineSet
98 1348 m 2,0,1
 98 1369 98 1369 106 1388 c 128,-1,2
 114 1407 114 1407 128 1421.5 c 128,-1,3
 142 1436 142 1436 161 1444 c 128,-1,4
 180 1452 180 1452 201 1452 c 0,5,6
 223 1452 223 1452 241.5 1444 c 128,-1,7
 260 1436 260 1436 274.5 1421.5 c 128,-1,8
 289 1407 289 1407 297.5 1388.5 c 128,-1,9
 306 1370 306 1370 306 1348 c 2,10,-1
 306 207 l 1,11,-1
 928 207 l 2,12,13
 948 207 948 207 967.5 199 c 128,-1,14
 987 191 987 191 1001 177 c 128,-1,15
 1015 163 1015 163 1023.5 144 c 128,-1,16
 1032 125 1032 125 1032 104 c 256,17,18
 1032 83 1032 83 1023.5 64 c 128,-1,19
 1015 45 1015 45 1001 31 c 128,-1,20
 987 17 987 17 968 8.5 c 128,-1,21
 949 0 949 0 928 0 c 2,22,-1
 201 0 l 2,23,24
 180 0 180 0 161 8.5 c 128,-1,25
 142 17 142 17 128 31 c 128,-1,26
 114 45 114 45 106 64 c 128,-1,27
 98 83 98 83 98 104 c 2,28,-1
 98 726 l 1,29,-1
 98 1348 l 2,0,1
EndSplineSet
EndChar
StartChar: M
Encoding: 77 77 34
Width: 1444
Flags: W
LayerCount: 2
Back
Fore
SplineSet
306 104 m 2,0,1
 306 83 306 83 297.5 64 c 128,-1,2
 289 45 289 45 274.5 31 c 128,-1,3
 260 17 260 17 241.5 8.5 c 128,-1,4
 223 0 223 0 201 0 c 0,5,6
 180 0 180 0 161 8.5 c 128,-1,7
 142 17 142 17 128 31 c 128,-1,8
 114 45 114 45 106 64 c 128,-1,9
 98 83 98 83 98 104 c 2,10,-1
 98 1348 l 2,11,12
 98 1369 98 1369 106 1388 c 128,-1,13
 114 1407 114 1407 128 1421.5 c 128,-1,14
 142 1436 142 1436 161 1444 c 128,-1,15
 180 1452 180 1452 201 1452 c 0,16,17
 236 1452 236 1452 262 1433 c 128,-1,18
 288 1414 288 1414 299 1386 c 1,19,-1
 721 541 l 1,20,-1
 1149 1394 l 2,21,22
 1161 1419 1161 1419 1185.5 1435 c 128,-1,23
 1210 1451 1210 1451 1241 1451 c 0,24,25
 1261 1451 1261 1451 1279.5 1443.5 c 128,-1,26
 1298 1436 1298 1436 1313 1421.5 c 128,-1,27
 1328 1407 1328 1407 1336.5 1388.5 c 128,-1,28
 1345 1370 1345 1370 1345 1348 c 2,29,-1
 1345 104 l 2,30,31
 1345 83 1345 83 1337 64 c 128,-1,32
 1329 45 1329 45 1314.5 31 c 128,-1,33
 1300 17 1300 17 1281.5 8.5 c 128,-1,34
 1263 0 1263 0 1241 0 c 0,35,36
 1220 0 1220 0 1201 8.5 c 128,-1,37
 1182 17 1182 17 1168 30.5 c 128,-1,38
 1154 44 1154 44 1146 63.5 c 128,-1,39
 1138 83 1138 83 1138 104 c 2,40,-1
 1138 912 l 1,41,-1
 813 265 l 1,42,43
 801 238 801 238 774 222.5 c 128,-1,44
 747 207 747 207 721 207 c 0,45,46
 688 207 688 207 664 224.5 c 128,-1,47
 640 242 640 242 628 265 c 2,48,-1
 306 910 l 1,49,-1
 306 104 l 2,0,1
EndSplineSet
EndChar
StartChar: N
Encoding: 78 78 33
Width: 1234
Flags: W
LayerCount: 2
Back
Fore
SplineSet
306 104 m 2,0,1
 306 83 306 83 297.5 64 c 128,-1,2
 289 45 289 45 274.5 31 c 128,-1,3
 260 17 260 17 241.5 8.5 c 128,-1,4
 223 0 223 0 201 0 c 0,5,6
 180 0 180 0 161 8.5 c 128,-1,7
 142 17 142 17 128 31 c 128,-1,8
 114 45 114 45 106 64 c 128,-1,9
 98 83 98 83 98 104 c 2,10,-1
 98 1348 l 2,11,12
 98 1369 98 1369 106 1388 c 128,-1,13
 114 1407 114 1407 128 1421.5 c 128,-1,14
 142 1436 142 1436 161 1444 c 128,-1,15
 180 1452 180 1452 201 1452 c 0,16,17
 227 1452 227 1452 250.5 1439.5 c 128,-1,18
 274 1427 274 1427 289 1405 c 2,19,-1
 928 446 l 1,20,-1
 928 1348 l 2,21,22
 928 1370 928 1370 936 1388.5 c 128,-1,23
 944 1407 944 1407 958.5 1421.5 c 128,-1,24
 973 1436 973 1436 991.5 1444 c 128,-1,25
 1010 1452 1010 1452 1032 1452 c 0,26,27
 1053 1452 1053 1452 1072 1444 c 128,-1,28
 1091 1436 1091 1436 1105 1421.5 c 128,-1,29
 1119 1407 1119 1407 1127.5 1388.5 c 128,-1,30
 1136 1370 1136 1370 1136 1348 c 2,31,-1
 1136 104 l 2,32,33
 1136 86 1136 86 1129 68 c 128,-1,34
 1122 50 1122 50 1109 35 c 128,-1,35
 1096 20 1096 20 1075.5 10.5 c 128,-1,36
 1055 1 1055 1 1030 1 c 0,37,38
 1002 0 1002 0 980.5 13.5 c 128,-1,39
 959 27 959 27 945 46 c 1,40,-1
 306 1006 l 1,41,-1
 306 555 l 1,42,-1
 306 104 l 2,0,1
EndSplineSet
EndChar
StartChar: P
Encoding: 80 80 30
Width: 1234
Flags: W
LayerCount: 2
Back
Fore
SplineSet
306 830 m 1,0,-1
 720 830 l 2,1,2
 744 830 744 830 779.5 839.5 c 128,-1,3
 815 849 815 849 848 872.5 c 128,-1,4
 881 896 881 896 904.5 936 c 128,-1,5
 928 976 928 976 928 1038 c 0,6,7
 928 1071 928 1071 914.5 1108 c 128,-1,8
 901 1145 901 1145 875 1175.5 c 128,-1,9
 849 1206 849 1206 810 1225.5 c 128,-1,10
 771 1245 771 1245 720 1245 c 2,11,-1
 306 1245 l 1,12,-1
 306 1038 l 1,13,-1
 306 830 l 1,0,-1
720 622 m 2,14,-1
 306 622 l 1,15,-1
 306 104 l 2,16,17
 306 83 306 83 297.5 64 c 128,-1,18
 289 45 289 45 274.5 31 c 128,-1,19
 260 17 260 17 241.5 8.5 c 128,-1,20
 223 0 223 0 201 0 c 0,21,22
 180 0 180 0 161 8.5 c 128,-1,23
 142 17 142 17 128 31 c 128,-1,24
 114 45 114 45 106 64 c 128,-1,25
 98 83 98 83 98 104 c 2,26,-1
 98 1348 l 2,27,28
 98 1369 98 1369 106 1388 c 128,-1,29
 114 1407 114 1407 128 1421.5 c 128,-1,30
 142 1436 142 1436 161 1444 c 128,-1,31
 180 1452 180 1452 201 1452 c 2,32,-1
 720 1452 l 2,33,34
 807 1452 807 1452 882.5 1419 c 128,-1,35
 958 1386 958 1386 1014.5 1329 c 128,-1,36
 1071 1272 1071 1272 1103.5 1196.5 c 128,-1,37
 1136 1121 1136 1121 1136 1038 c 0,38,39
 1136 956 1136 956 1104.5 881 c 128,-1,40
 1073 806 1073 806 1017.5 748.5 c 128,-1,41
 962 691 962 691 886 656.5 c 128,-1,42
 810 622 810 622 720 622 c 2,14,-1
EndSplineSet
EndChar
StartChar: Q
Encoding: 81 81 29
Width: 1234
Flags: W
LayerCount: 2
Back
Fore
SplineSet
617 1452 m 0,0,1
 734 1452 734 1452 830 1411 c 128,-1,2
 926 1370 926 1370 993.5 1282 c 128,-1,3
 1061 1194 1061 1194 1098.5 1056.5 c 128,-1,4
 1136 919 1136 919 1136 726 c 0,5,6
 1136 572 1136 572 1113 454 c 128,-1,7
 1090 336 1090 336 1041 242 c 1,8,-1
 1106 177 l 2,9,10
 1136 146 1136 146 1136 104 c 0,11,12
 1136 83 1136 83 1127.5 64 c 128,-1,13
 1119 45 1119 45 1105 31 c 128,-1,14
 1091 17 1091 17 1072 8.5 c 128,-1,15
 1053 0 1053 0 1032 0 c 0,16,17
 989 0 989 0 958 30 c 1,18,-1
 905 84 l 1,19,20
 846 40 846 40 773.5 20 c 128,-1,21
 701 0 701 0 617 0 c 0,22,23
 493 0 493 0 396.5 43.5 c 128,-1,24
 300 87 300 87 233.5 176.5 c 128,-1,25
 167 266 167 266 132.5 403 c 128,-1,26
 98 540 98 540 98 726 c 0,27,28
 98 1081 98 1081 228 1266.5 c 128,-1,29
 358 1452 358 1452 617 1452 c 0,0,1
754 235 m 1,30,-1
 751 238 l 2,31,32
 721 268 721 268 721 312 c 0,33,34
 721 333 721 333 729.5 352 c 128,-1,35
 738 371 738 371 752.5 385 c 128,-1,36
 767 399 767 399 785.5 407 c 128,-1,37
 804 415 804 415 825 415 c 0,38,39
 858 415 858 415 883 396 c 1,40,41
 906 457 906 457 917 538 c 128,-1,42
 928 619 928 619 928 726 c 0,43,44
 928 860 928 860 910.5 958 c 128,-1,45
 893 1056 893 1056 855.5 1119.5 c 128,-1,46
 818 1183 818 1183 759 1214 c 128,-1,47
 700 1245 700 1245 617 1245 c 0,48,49
 532 1245 532 1245 472.5 1212 c 128,-1,50
 413 1179 413 1179 376 1114.5 c 128,-1,51
 339 1050 339 1050 322.5 952.5 c 128,-1,52
 306 855 306 855 306 726 c 0,53,54
 306 595 306 595 323 497.5 c 128,-1,55
 340 400 340 400 378 335.5 c 128,-1,56
 416 271 416 271 475 239 c 128,-1,57
 534 207 534 207 617 207 c 0,58,59
 657 207 657 207 689.5 213.5 c 128,-1,60
 722 220 722 220 754 235 c 1,30,-1
EndSplineSet
EndChar
StartChar: R
Encoding: 82 82 28
Width: 1241
Flags: W
LayerCount: 2
Back
Fore
SplineSet
306 830 m 1,0,-1
 720 830 l 2,1,2
 744 830 744 830 779.5 839.5 c 128,-1,3
 815 849 815 849 848 872.5 c 128,-1,4
 881 896 881 896 904.5 936 c 128,-1,5
 928 976 928 976 928 1038 c 0,6,7
 928 1071 928 1071 914.5 1108 c 128,-1,8
 901 1145 901 1145 875 1175.5 c 128,-1,9
 849 1206 849 1206 810 1225.5 c 128,-1,10
 771 1245 771 1245 720 1245 c 2,11,-1
 306 1245 l 1,12,-1
 306 1038 l 1,13,-1
 306 830 l 1,0,-1
847 643 m 1,14,-1
 1122 154 l 2,15,16
 1135 132 1135 132 1135 104 c 0,17,18
 1135 83 1135 83 1127 64 c 128,-1,19
 1119 45 1119 45 1105 31 c 128,-1,20
 1091 17 1091 17 1072 8.5 c 128,-1,21
 1053 0 1053 0 1033 0 c 0,22,23
 1001 0 1001 0 977.5 14 c 128,-1,24
 954 28 954 28 941 53 c 2,25,-1
 621 622 l 1,26,-1
 306 622 l 1,27,-1
 306 104 l 2,28,29
 306 83 306 83 297.5 64 c 128,-1,30
 289 45 289 45 274.5 31 c 128,-1,31
 260 17 260 17 241.5 8.5 c 128,-1,32
 223 0 223 0 201 0 c 0,33,34
 180 0 180 0 161 8.5 c 128,-1,35
 142 17 142 17 128 31 c 128,-1,36
 114 45 114 45 106 64 c 128,-1,37
 98 83 98 83 98 104 c 2,38,-1
 98 726 l 1,39,-1
 98 1348 l 2,40,41
 98 1369 98 1369 106 1388 c 128,-1,42
 114 1407 114 1407 128 1421.5 c 128,-1,43
 142 1436 142 1436 161 1444 c 128,-1,44
 180 1452 180 1452 201 1452 c 2,45,-1
 720 1452 l 2,46,47
 807 1452 807 1452 882.5 1419 c 128,-1,48
 958 1386 958 1386 1014.5 1329 c 128,-1,49
 1071 1272 1071 1272 1103.5 1196.5 c 128,-1,50
 1136 1121 1136 1121 1136 1038 c 0,51,52
 1136 976 1136 976 1118 917.5 c 128,-1,53
 1100 859 1100 859 1067 809 c 128,-1,54
 1034 759 1034 759 986.5 719 c 128,-1,55
 939 679 939 679 882 655 c 0,56,57
 870 651 870 651 861 647.5 c 128,-1,58
 852 644 852 644 847 643 c 1,14,-1
EndSplineSet
EndChar
StartChar: U
Encoding: 85 85 47
Width: 1234
Flags: W
LayerCount: 2
Back
Fore
SplineSet
98 1348 m 2,0,1
 98 1369 98 1369 106 1388 c 128,-1,2
 114 1407 114 1407 128 1421.5 c 128,-1,3
 142 1436 142 1436 161 1444 c 128,-1,4
 180 1452 180 1452 201 1452 c 0,5,6
 223 1452 223 1452 241.5 1444 c 128,-1,7
 260 1436 260 1436 274.5 1421.5 c 128,-1,8
 289 1407 289 1407 297.5 1388.5 c 128,-1,9
 306 1370 306 1370 306 1348 c 2,10,-1
 306 519 l 2,11,12
 306 452 306 452 331 395.5 c 128,-1,13
 356 339 356 339 398.5 297 c 128,-1,14
 441 255 441 255 497.5 231 c 128,-1,15
 554 207 554 207 617 207 c 0,16,17
 674 207 674 207 729.5 229 c 128,-1,18
 785 251 785 251 829.5 291 c 128,-1,19
 874 331 874 331 901 388.5 c 128,-1,20
 928 446 928 446 928 519 c 2,21,-1
 928 1348 l 2,22,23
 928 1370 928 1370 936 1388.5 c 128,-1,24
 944 1407 944 1407 958.5 1421.5 c 128,-1,25
 973 1436 973 1436 991.5 1444 c 128,-1,26
 1010 1452 1010 1452 1032 1452 c 0,27,28
 1053 1452 1053 1452 1072 1444 c 128,-1,29
 1091 1436 1091 1436 1105 1421.5 c 128,-1,30
 1119 1407 1119 1407 1127.5 1388.5 c 128,-1,31
 1136 1370 1136 1370 1136 1348 c 2,32,-1
 1136 519 l 2,33,34
 1136 422 1136 422 1098.5 328.5 c 128,-1,35
 1061 235 1061 235 993 162 c 128,-1,36
 925 89 925 89 829 44.5 c 128,-1,37
 733 0 733 0 617 0 c 0,38,39
 510 0 510 0 415.5 41 c 128,-1,40
 321 82 321 82 250.5 152 c 128,-1,41
 180 222 180 222 139 316.5 c 128,-1,42
 98 411 98 411 98 519 c 2,43,-1
 98 934 l 1,44,-1
 98 1348 l 2,0,1
EndSplineSet
EndChar
StartChar: V
Encoding: 86 86 25
Width: 1250
Flags: W
LayerCount: 2
Back
Fore
SplineSet
112 1317 m 2,0,1
 106 1333 106 1333 106 1349 c 0,2,3
 106 1368 106 1368 113.5 1386 c 128,-1,4
 121 1404 121 1404 134.5 1419 c 128,-1,5
 148 1434 148 1434 167.5 1442.5 c 128,-1,6
 187 1451 187 1451 210 1451 c 0,7,8
 244 1451 244 1451 271 1431.5 c 128,-1,9
 298 1412 298 1412 309 1382 c 2,10,-1
 625 430 l 1,11,-1
 942 1382 l 2,12,13
 953 1412 953 1412 979 1431.5 c 128,-1,14
 1005 1451 1005 1451 1040 1451 c 0,15,16
 1060 1451 1060 1451 1079.5 1443.5 c 128,-1,17
 1099 1436 1099 1436 1112.5 1421.5 c 128,-1,18
 1126 1407 1126 1407 1134.5 1388.5 c 128,-1,19
 1143 1370 1143 1370 1143 1349 c 0,20,21
 1143 1341 1143 1341 1142 1333 c 128,-1,22
 1141 1325 1141 1325 1138 1317 c 2,23,-1
 723 72 l 2,24,25
 717 53 717 53 706.5 40 c 128,-1,26
 696 27 696 27 682.5 18 c 128,-1,27
 669 9 669 9 654 5 c 128,-1,28
 639 1 639 1 624 1 c 0,29,30
 590 1 590 1 564 20.5 c 128,-1,31
 538 40 538 40 528 71 c 2,32,-1
 319 694 l 1,33,-1
 112 1317 l 2,0,1
EndSplineSet
EndChar
StartChar: W
Encoding: 87 87 26
Width: 1746
Flags: W
LayerCount: 2
Back
Fore
SplineSet
109 1322 m 2,0,1
 107 1329 107 1329 106 1335.5 c 128,-1,2
 105 1342 105 1342 105 1349 c 0,3,4
 105 1371 105 1371 114 1389.5 c 128,-1,5
 123 1408 123 1408 137.5 1422.5 c 128,-1,6
 152 1437 152 1437 171 1444.5 c 128,-1,7
 190 1452 190 1452 210 1452 c 0,8,9
 226 1452 226 1452 242 1447 c 128,-1,10
 258 1442 258 1442 272 1431.5 c 128,-1,11
 286 1421 286 1421 296 1407 c 128,-1,12
 306 1393 306 1393 310 1375 c 2,13,-1
 541 505 l 1,14,-1
 773 1375 l 1,15,16
 781 1409 781 1409 809.5 1430 c 128,-1,17
 838 1451 838 1451 872 1451 c 0,18,19
 909 1451 909 1451 937.5 1429 c 128,-1,20
 966 1407 966 1407 974 1374 c 2,21,-1
 1206 505 l 1,22,-1
 1438 1375 l 2,23,24
 1446 1406 1446 1406 1473.5 1428.5 c 128,-1,25
 1501 1451 1501 1451 1536 1451 c 0,26,27
 1557 1451 1557 1451 1576 1443.5 c 128,-1,28
 1595 1436 1595 1436 1609 1422 c 128,-1,29
 1623 1408 1623 1408 1632 1389.5 c 128,-1,30
 1641 1371 1641 1371 1641 1348 c 0,31,32
 1641 1335 1641 1335 1638 1322 c 2,33,-1
 1306 79 l 2,34,35
 1296 44 1296 44 1269 22 c 128,-1,36
 1242 0 1242 0 1205 0 c 256,37,38
 1168 0 1168 0 1140.5 21.5 c 128,-1,39
 1113 43 1113 43 1106 78 c 1,40,-1
 874 947 l 1,41,-1
 642 79 l 1,42,43
 634 44 634 44 605.5 22 c 128,-1,44
 577 0 577 0 540 0 c 0,45,46
 504 0 504 0 476.5 21.5 c 128,-1,47
 449 43 449 43 441 78 c 1,48,-1
 275 700 l 1,49,-1
 109 1322 l 2,0,1
EndSplineSet
EndChar
StartChar: a
Encoding: 97 97 71
Width: 1145
Flags: W
LayerCount: 2
Back
Fore
SplineSet
513 1038 m 0,0,1
 578 1038 578 1038 631.5 1022 c 128,-1,2
 685 1006 685 1006 738 976 c 1,3,4
 752 1004 752 1004 777.5 1020.5 c 128,-1,5
 803 1037 803 1037 833 1037 c 0,6,7
 854 1037 854 1037 872.5 1028.5 c 128,-1,8
 891 1020 891 1020 905.5 1006 c 128,-1,9
 920 992 920 992 928 973 c 128,-1,10
 936 954 936 954 936 933 c 2,11,-1
 928 221 l 2,12,13
 928 211 928 211 934 209 c 128,-1,14
 940 207 940 207 942 207 c 2,15,-1
 943 207 l 2,16,17
 965 207 965 207 983.5 198.5 c 128,-1,18
 1002 190 1002 190 1016.5 175.5 c 128,-1,19
 1031 161 1031 161 1039 142.5 c 128,-1,20
 1047 124 1047 124 1047 103 c 0,21,22
 1047 81 1047 81 1038.5 62 c 128,-1,23
 1030 43 1030 43 1015.5 29.5 c 128,-1,24
 1001 16 1001 16 982 8.5 c 128,-1,25
 963 1 963 1 942 1 c 2,26,-1
 940 1 l 2,27,28
 885 1 885 1 843.5 24 c 128,-1,29
 802 47 802 47 768 85 c 1,30,31
 718 42 718 42 653 21 c 128,-1,32
 588 0 588 0 513 0 c 0,33,34
 417 0 417 0 340 33.5 c 128,-1,35
 263 67 263 67 209.5 132.5 c 128,-1,36
 156 198 156 198 127 295 c 128,-1,37
 98 392 98 392 98 519 c 0,38,39
 98 654 98 654 129.5 751.5 c 128,-1,40
 161 849 161 849 216 913 c 128,-1,41
 271 977 271 977 347.5 1007.5 c 128,-1,42
 424 1038 424 1038 513 1038 c 0,0,1
663 766 m 1,43,44
 638 797 638 797 600.5 813.5 c 128,-1,45
 563 830 563 830 513 830 c 0,46,47
 405 830 405 830 355.5 754.5 c 128,-1,48
 306 679 306 679 306 519 c 0,49,50
 306 427 306 427 321 367 c 128,-1,51
 336 307 336 307 363 271.5 c 128,-1,52
 390 236 390 236 428.5 221.5 c 128,-1,53
 467 207 467 207 513 207 c 256,54,55
 559 207 559 207 597.5 221.5 c 128,-1,56
 636 236 636 236 663 272 c 128,-1,57
 690 308 690 308 705 367.5 c 128,-1,58
 720 427 720 427 720 519 c 0,59,60
 720 612 720 612 704.5 671 c 128,-1,61
 689 730 689 730 663 766 c 1,43,44
EndSplineSet
EndChar
StartChar: d
Encoding: 100 100 73
Width: 1119
Flags: W
LayerCount: 2
Back
Fore
SplineSet
720 1348 m 2,0,1
 720 1369 720 1369 728 1388 c 128,-1,2
 736 1407 736 1407 750.5 1421.5 c 128,-1,3
 765 1436 765 1436 783.5 1444 c 128,-1,4
 802 1452 802 1452 824 1452 c 0,5,6
 845 1452 845 1452 863.5 1444 c 128,-1,7
 882 1436 882 1436 896.5 1421.5 c 128,-1,8
 911 1407 911 1407 919.5 1388.5 c 128,-1,9
 928 1370 928 1370 928 1348 c 2,10,-1
 928 207 l 1,11,12
 945 205 945 205 962.5 196.5 c 128,-1,13
 980 188 980 188 992.5 174 c 128,-1,14
 1005 160 1005 160 1013 142.5 c 128,-1,15
 1021 125 1021 125 1021 104 c 256,16,17
 1021 83 1021 83 1012.5 64 c 128,-1,18
 1004 45 1004 45 990.5 31 c 128,-1,19
 977 17 977 17 958 8.5 c 128,-1,20
 939 0 939 0 918 0 c 0,21,22
 872 0 872 0 834 18 c 128,-1,23
 796 36 796 36 760 78 c 1,24,25
 711 41 711 41 648.5 20.5 c 128,-1,26
 586 0 586 0 513 0 c 0,27,28
 417 0 417 0 340 33.5 c 128,-1,29
 263 67 263 67 209.5 132.5 c 128,-1,30
 156 198 156 198 127 295 c 128,-1,31
 98 392 98 392 98 519 c 0,32,33
 98 654 98 654 129.5 751.5 c 128,-1,34
 161 849 161 849 216 913 c 128,-1,35
 271 977 271 977 347.5 1007.5 c 128,-1,36
 424 1038 424 1038 513 1038 c 0,37,38
 572 1038 572 1038 622 1025 c 128,-1,39
 672 1012 672 1012 720 987 c 1,40,-1
 720 1348 l 2,0,1
662 766 m 0,41,42
 637 798 637 798 599 814 c 128,-1,43
 561 830 561 830 513 830 c 0,44,45
 451 830 451 830 411 807 c 128,-1,46
 371 784 371 784 347.5 743 c 128,-1,47
 324 702 324 702 315 645 c 128,-1,48
 306 588 306 588 306 519 c 0,49,50
 306 427 306 427 320.5 367 c 128,-1,51
 335 307 335 307 362.5 271.5 c 128,-1,52
 390 236 390 236 428.5 221.5 c 128,-1,53
 467 207 467 207 513 207 c 0,54,55
 558 207 558 207 596.5 222 c 128,-1,56
 635 237 635 237 662.5 273.5 c 128,-1,57
 690 310 690 310 705 369 c 128,-1,58
 720 428 720 428 720 519 c 0,59,60
 720 600 720 600 706 663 c 128,-1,61
 692 726 692 726 662 766 c 0,41,42
EndSplineSet
EndChar
StartChar: e
Encoding: 101 101 70
Width: 1019
Flags: W
LayerCount: 2
Back
Fore
SplineSet
654 269 m 0,0,1
 668 289 668 289 689.5 300 c 128,-1,2
 711 311 711 311 738 311 c 0,3,4
 757 311 757 311 775.5 303 c 128,-1,5
 794 295 794 295 808.5 281 c 128,-1,6
 823 267 823 267 831.5 248.5 c 128,-1,7
 840 230 840 230 840 208 c 0,8,9
 840 187 840 187 832 167.5 c 128,-1,10
 824 148 824 148 811 132 c 128,-1,11
 798 116 798 116 783 103 c 128,-1,12
 768 90 768 90 757 81 c 0,13,14
 721 52 721 52 687.5 36.5 c 128,-1,15
 654 21 654 21 623 12.5 c 128,-1,16
 592 4 592 4 563.5 2 c 128,-1,17
 535 0 535 0 510 0 c 0,18,19
 413 0 413 0 336 34.5 c 128,-1,20
 259 69 259 69 206.5 135 c 128,-1,21
 154 201 154 201 126 297.5 c 128,-1,22
 98 394 98 394 98 519 c 0,23,24
 98 648 98 648 127 745 c 128,-1,25
 156 842 156 842 210 907 c 128,-1,26
 264 972 264 972 340 1005 c 128,-1,27
 416 1038 416 1038 510 1038 c 0,28,29
 596 1038 596 1038 671 1008 c 128,-1,30
 746 978 746 978 801.5 914.5 c 128,-1,31
 857 851 857 851 889 752.5 c 128,-1,32
 921 654 921 654 921 519 c 0,33,34
 921 497 921 497 912.5 478.5 c 128,-1,35
 904 460 904 460 890 445.5 c 128,-1,36
 876 431 876 431 857 423 c 128,-1,37
 838 415 838 415 817 415 c 2,38,-1
 312 415 l 1,39,40
 318 366 318 366 332.5 327 c 128,-1,41
 347 288 347 288 370.5 261.5 c 128,-1,42
 394 235 394 235 428.5 221 c 128,-1,43
 463 207 463 207 510 207 c 0,44,45
 543 207 543 207 567 213 c 128,-1,46
 591 219 591 219 607.5 228 c 128,-1,47
 624 237 624 237 635.5 247.5 c 128,-1,48
 647 258 647 258 654 269 c 0,0,1
363 767 m 1,49,50
 340 735 340 735 329 699 c 128,-1,51
 318 663 318 663 312 622 c 1,52,-1
 707 622 l 1,53,54
 700 666 700 666 687.5 704.5 c 128,-1,55
 675 743 675 743 652.5 771 c 128,-1,56
 630 799 630 799 595 814.5 c 128,-1,57
 560 830 560 830 510 830 c 256,58,59
 460 830 460 830 423.5 813.5 c 128,-1,60
 387 797 387 797 363 767 c 1,49,50
EndSplineSet
EndChar
StartChar: f
Encoding: 102 102 69
Width: 606
Flags: W
LayerCount: 2
Back
Fore
SplineSet
373 104 m 2,0,1
 373 83 373 83 365 64 c 128,-1,2
 357 45 357 45 342.5 31 c 128,-1,3
 328 17 328 17 309 8.5 c 128,-1,4
 290 0 290 0 269 0 c 256,5,6
 248 0 248 0 229 8.5 c 128,-1,7
 210 17 210 17 196 31 c 128,-1,8
 182 45 182 45 173.5 64 c 128,-1,9
 165 83 165 83 165 104 c 2,10,-1
 165 830 l 1,11,-1
 137 830 l 2,12,13
 92 830 92 830 62.5 859.5 c 128,-1,14
 33 889 33 889 33 934 c 0,15,16
 33 954 33 954 41 973 c 128,-1,17
 49 992 49 992 63.5 1006 c 128,-1,18
 78 1020 78 1020 96.5 1029 c 128,-1,19
 115 1038 115 1038 137 1038 c 2,20,-1
 165 1038 l 1,21,-1
 165 1142 l 2,22,23
 165 1177 165 1177 170 1203.5 c 128,-1,24
 175 1230 175 1230 182.5 1250.5 c 128,-1,25
 190 1271 190 1271 199 1286 c 128,-1,26
 208 1301 208 1301 217 1315 c 1,27,28
 235 1339 235 1339 261 1364 c 128,-1,29
 287 1389 287 1389 320 1408.5 c 128,-1,30
 353 1428 353 1428 392.5 1440 c 128,-1,31
 432 1452 432 1452 479 1452 c 0,32,33
 499 1452 499 1452 518.5 1444 c 128,-1,34
 538 1436 538 1436 551.5 1422 c 128,-1,35
 565 1408 565 1408 573.5 1389 c 128,-1,36
 582 1370 582 1370 582 1349 c 256,37,38
 582 1328 582 1328 573.5 1309 c 128,-1,39
 565 1290 565 1290 551 1276 c 128,-1,40
 537 1262 537 1262 517.5 1254 c 128,-1,41
 498 1246 498 1246 478 1246 c 0,42,43
 454 1246 454 1246 435 1237 c 128,-1,44
 416 1228 416 1228 402 1214 c 128,-1,45
 388 1200 388 1200 380.5 1181.5 c 128,-1,46
 373 1163 373 1163 373 1142 c 2,47,-1
 373 1038 l 1,48,-1
 477 1038 l 2,49,50
 497 1038 497 1038 516.5 1029.5 c 128,-1,51
 536 1021 536 1021 550 1007 c 128,-1,52
 564 993 564 993 572.5 973.5 c 128,-1,53
 581 954 581 954 581 934 c 0,54,55
 581 911 581 911 572 892.5 c 128,-1,56
 563 874 563 874 549 860 c 128,-1,57
 535 846 535 846 516 838 c 128,-1,58
 497 830 497 830 477 830 c 2,59,-1
 373 830 l 1,60,-1
 373 623 l 1,61,-1
 373 104 l 2,0,1
EndSplineSet
EndChar
StartChar: g
Encoding: 103 103 68
Width: 1034
Flags: W
LayerCount: 2
Back
Fore
SplineSet
521 1038 m 0,0,1
 583 1038 583 1038 639.5 1023 c 128,-1,2
 696 1008 696 1008 739 979 c 1,3,4
 753 1004 753 1004 776.5 1020.5 c 128,-1,5
 800 1037 800 1037 832 1037 c 0,6,7
 854 1037 854 1037 872.5 1028.5 c 128,-1,8
 891 1020 891 1020 905 1006 c 128,-1,9
 919 992 919 992 927.5 973 c 128,-1,10
 936 954 936 954 936 934 c 2,11,-1
 936 519 l 1,12,-1
 936 467 l 1,13,-1
 936 0 l 2,14,15
 936 -81 936 -81 907 -155.5 c 128,-1,16
 878 -230 878 -230 823.5 -287.5 c 128,-1,17
 769 -345 769 -345 692.5 -379.5 c 128,-1,18
 616 -414 616 -414 521 -414 c 0,19,20
 444 -414 444 -414 375.5 -393 c 128,-1,21
 307 -372 307 -372 253 -335 c 128,-1,22
 199 -298 199 -298 161.5 -244.5 c 128,-1,23
 124 -191 124 -191 109 -125 c 0,24,25
 106 -112 106 -112 106 -100 c 0,26,27
 106 -81 106 -81 114 -62.5 c 128,-1,28
 122 -44 122 -44 136 -30.5 c 128,-1,29
 150 -17 150 -17 169 -8.5 c 128,-1,30
 188 0 188 0 208 0 c 0,31,32
 247 0 247 0 275 -23 c 128,-1,33
 303 -46 303 -46 311 -81 c 1,34,35
 314 -101 314 -101 329 -123 c 128,-1,36
 344 -145 344 -145 369.5 -164 c 128,-1,37
 395 -183 395 -183 433 -194.5 c 128,-1,38
 471 -206 471 -206 521 -206 c 0,39,40
 563 -206 563 -206 601 -192.5 c 128,-1,41
 639 -179 639 -179 667.5 -152.5 c 128,-1,42
 696 -126 696 -126 712 -87.5 c 128,-1,43
 728 -49 728 -49 728 0 c 2,44,-1
 728 52 l 1,45,46
 687 25 687 25 632.5 12.5 c 128,-1,47
 578 0 578 0 521 0 c 0,48,49
 425 0 425 0 348 33.5 c 128,-1,50
 271 67 271 67 217.5 132.5 c 128,-1,51
 164 198 164 198 135 295 c 128,-1,52
 106 392 106 392 106 519 c 0,53,54
 106 654 106 654 137.5 751.5 c 128,-1,55
 169 849 169 849 224 913 c 128,-1,56
 279 977 279 977 355 1007.5 c 128,-1,57
 431 1038 431 1038 521 1038 c 0,0,1
670 766 m 0,58,59
 645 798 645 798 607 814 c 128,-1,60
 569 830 569 830 521 830 c 0,61,62
 459 830 459 830 419 807 c 128,-1,63
 379 784 379 784 355.5 743 c 128,-1,64
 332 702 332 702 322.5 645 c 128,-1,65
 313 588 313 588 313 519 c 0,66,67
 313 427 313 427 328 367 c 128,-1,68
 343 307 343 307 370.5 271.5 c 128,-1,69
 398 236 398 236 436.5 221.5 c 128,-1,70
 475 207 475 207 521 207 c 0,71,72
 566 207 566 207 604.5 222 c 128,-1,73
 643 237 643 237 670.5 273.5 c 128,-1,74
 698 310 698 310 713 369 c 128,-1,75
 728 428 728 428 728 519 c 0,76,77
 728 600 728 600 714 663 c 128,-1,78
 700 726 700 726 670 766 c 0,58,59
EndSplineSet
EndChar
StartChar: h
Encoding: 104 104 67
Width: 1026
Flags: W
LayerCount: 2
Back
Fore
SplineSet
306 982 m 1,0,1
 403 1038 403 1038 513 1038 c 0,2,3
 587 1038 587 1038 661 1009.5 c 128,-1,4
 735 981 735 981 794.5 927 c 128,-1,5
 854 873 854 873 891 796 c 128,-1,6
 928 719 928 719 928 622 c 2,7,-1
 928 104 l 2,8,9
 928 81 928 81 919 61.5 c 128,-1,10
 910 42 910 42 896 28.5 c 128,-1,11
 882 15 882 15 863 7.5 c 128,-1,12
 844 0 844 0 825 0 c 0,13,14
 803 0 803 0 784.5 8.5 c 128,-1,15
 766 17 766 17 751.5 31 c 128,-1,16
 737 45 737 45 728.5 64 c 128,-1,17
 720 83 720 83 720 104 c 2,18,-1
 720 622 l 2,19,20
 720 662 720 662 704.5 700 c 128,-1,21
 689 738 689 738 661.5 767 c 128,-1,22
 634 796 634 796 596 813 c 128,-1,23
 558 830 558 830 513 830 c 0,24,25
 463 830 463 830 424.5 811 c 128,-1,26
 386 792 386 792 359.5 761.5 c 128,-1,27
 333 731 333 731 319.5 694 c 128,-1,28
 306 657 306 657 306 622 c 2,29,-1
 306 104 l 2,30,31
 306 83 306 83 297.5 64 c 128,-1,32
 289 45 289 45 274.5 31 c 128,-1,33
 260 17 260 17 241.5 8.5 c 128,-1,34
 223 0 223 0 201 0 c 0,35,36
 180 0 180 0 161 8.5 c 128,-1,37
 142 17 142 17 128 31 c 128,-1,38
 114 45 114 45 106 64 c 128,-1,39
 98 83 98 83 98 104 c 2,40,-1
 98 726 l 1,41,-1
 98 1348 l 2,42,43
 98 1369 98 1369 106 1388 c 128,-1,44
 114 1407 114 1407 128 1421.5 c 128,-1,45
 142 1436 142 1436 161 1444 c 128,-1,46
 180 1452 180 1452 201 1452 c 0,47,48
 223 1452 223 1452 241.5 1444 c 128,-1,49
 260 1436 260 1436 274.5 1421.5 c 128,-1,50
 289 1407 289 1407 297.5 1388.5 c 128,-1,51
 306 1370 306 1370 306 1348 c 2,52,-1
 306 982 l 1,0,1
EndSplineSet
EndChar
StartChar: l
Encoding: 108 108 63
Width: 497
Flags: W
LayerCount: 2
Back
Fore
SplineSet
98 1348 m 2,0,1
 98 1369 98 1369 106 1388 c 128,-1,2
 114 1407 114 1407 128 1421.5 c 128,-1,3
 142 1436 142 1436 161 1444 c 128,-1,4
 180 1452 180 1452 201 1452 c 0,5,6
 223 1452 223 1452 241.5 1444 c 128,-1,7
 260 1436 260 1436 274.5 1421.5 c 128,-1,8
 289 1407 289 1407 297.5 1388.5 c 128,-1,9
 306 1370 306 1370 306 1348 c 2,10,-1
 306 207 l 1,11,12
 323 205 323 205 340 197 c 128,-1,13
 357 189 357 189 370 175 c 128,-1,14
 383 161 383 161 391 143.5 c 128,-1,15
 399 126 399 126 399 104 c 0,16,17
 399 83 399 83 390.5 64 c 128,-1,18
 382 45 382 45 368 31 c 128,-1,19
 354 17 354 17 335 8.5 c 128,-1,20
 316 0 316 0 295 0 c 0,21,22
 263 0 263 0 228.5 12.5 c 128,-1,23
 194 25 194 25 165 49.5 c 128,-1,24
 136 74 136 74 117 111 c 128,-1,25
 98 148 98 148 98 198 c 2,26,-1
 98 1348 l 2,0,1
EndSplineSet
EndChar
StartChar: p
Encoding: 112 112 58
Width: 1026
Flags: W
LayerCount: 2
Back
Fore
SplineSet
513 1038 m 0,0,1
 604 1038 604 1038 681 1006 c 128,-1,2
 758 974 758 974 812.5 909 c 128,-1,3
 867 844 867 844 897.5 747 c 128,-1,4
 928 650 928 650 928 519 c 0,5,6
 928 396 928 396 900 299.5 c 128,-1,7
 872 203 872 203 819 137 c 128,-1,8
 766 71 766 71 688.5 35.5 c 128,-1,9
 611 0 611 0 513 0 c 0,10,11
 451 0 451 0 402.5 13 c 128,-1,12
 354 26 354 26 305 51 c 1,13,-1
 305 -311 l 2,14,15
 305 -333 305 -333 296.5 -351.5 c 128,-1,16
 288 -370 288 -370 273.5 -384 c 128,-1,17
 259 -398 259 -398 240.5 -406 c 128,-1,18
 222 -414 222 -414 201 -414 c 0,19,20
 181 -414 181 -414 161.5 -405.5 c 128,-1,21
 142 -397 142 -397 128.5 -383.5 c 128,-1,22
 115 -370 115 -370 106.5 -350.5 c 128,-1,23
 98 -331 98 -331 98 -311 c 2,24,-1
 98 934 l 2,25,26
 98 953 98 953 106 972 c 128,-1,27
 114 991 114 991 128 1005 c 128,-1,28
 142 1019 142 1019 160.5 1028 c 128,-1,29
 179 1037 179 1037 201 1037 c 0,30,31
 233 1037 233 1037 254 1023 c 128,-1,32
 275 1009 275 1009 295 980 c 1,33,34
 384 1038 384 1038 513 1038 c 0,0,1
662 766 m 0,35,36
 637 798 637 798 599 814 c 128,-1,37
 561 830 561 830 513 830 c 0,38,39
 451 830 451 830 411 807 c 128,-1,40
 371 784 371 784 347.5 743 c 128,-1,41
 324 702 324 702 315 645 c 128,-1,42
 306 588 306 588 306 519 c 0,43,44
 306 427 306 427 320.5 367 c 128,-1,45
 335 307 335 307 362.5 271.5 c 128,-1,46
 390 236 390 236 428.5 221.5 c 128,-1,47
 467 207 467 207 513 207 c 0,48,49
 558 207 558 207 596.5 222 c 128,-1,50
 635 237 635 237 662.5 273.5 c 128,-1,51
 690 310 690 310 705 369 c 128,-1,52
 720 428 720 428 720 519 c 0,53,54
 720 600 720 600 706 663 c 128,-1,55
 692 726 692 726 662 766 c 0,35,36
EndSplineSet
EndChar
StartChar: q
Encoding: 113 113 59
Width: 1026
Flags: W
LayerCount: 2
Back
Fore
SplineSet
513 830 m 0,0,1
 451 830 451 830 411 807 c 128,-1,2
 371 784 371 784 347.5 743 c 128,-1,3
 324 702 324 702 315 645 c 128,-1,4
 306 588 306 588 306 519 c 0,5,6
 306 427 306 427 320.5 367 c 128,-1,7
 335 307 335 307 362.5 271.5 c 128,-1,8
 390 236 390 236 428.5 221.5 c 128,-1,9
 467 207 467 207 513 207 c 0,10,11
 558 207 558 207 596.5 222 c 128,-1,12
 635 237 635 237 662.5 273.5 c 128,-1,13
 690 310 690 310 705 369 c 128,-1,14
 720 428 720 428 720 519 c 0,15,16
 720 594 720 594 709 652 c 128,-1,17
 698 710 698 710 673 749.5 c 128,-1,18
 648 789 648 789 608.5 809.5 c 128,-1,19
 569 830 569 830 513 830 c 0,0,1
731 980 m 1,20,21
 746 1006 746 1006 769 1021.5 c 128,-1,22
 792 1037 792 1037 824 1037 c 0,23,24
 845 1037 845 1037 864 1028.5 c 128,-1,25
 883 1020 883 1020 897.5 1006 c 128,-1,26
 912 992 912 992 920 973 c 128,-1,27
 928 954 928 954 928 934 c 0,28,29
 928 776 928 776 927.5 622 c 128,-1,30
 927 468 927 468 927 312 c 2,31,-1
 927 -311 l 2,32,33
 927 -333 927 -333 918.5 -351.5 c 128,-1,34
 910 -370 910 -370 896 -384 c 128,-1,35
 882 -398 882 -398 863 -406 c 128,-1,36
 844 -414 844 -414 824 -414 c 0,37,38
 803 -414 803 -414 784 -405.5 c 128,-1,39
 765 -397 765 -397 751 -383.5 c 128,-1,40
 737 -370 737 -370 728.5 -350.5 c 128,-1,41
 720 -331 720 -331 720 -311 c 2,42,-1
 720 51 l 1,43,44
 672 26 672 26 622 13 c 128,-1,45
 572 0 572 0 513 0 c 0,46,47
 417 0 417 0 340 33.5 c 128,-1,48
 263 67 263 67 209.5 132.5 c 128,-1,49
 156 198 156 198 127 295 c 128,-1,50
 98 392 98 392 98 519 c 0,51,52
 98 654 98 654 129.5 751.5 c 128,-1,53
 161 849 161 849 216 913 c 128,-1,54
 271 977 271 977 347.5 1007.5 c 128,-1,55
 424 1038 424 1038 513 1038 c 0,56,57
 576 1038 576 1038 629 1023 c 128,-1,58
 682 1008 682 1008 731 980 c 1,20,21
EndSplineSet
EndChar
StartChar: r
Encoding: 114 114 57
Width: 895
Flags: W
LayerCount: 2
Back
Fore
SplineSet
297 977 m 1,0,1
 327 994 327 994 353.5 1005 c 128,-1,2
 380 1016 380 1016 406 1023.5 c 128,-1,3
 432 1031 432 1031 458 1034.5 c 128,-1,4
 484 1038 484 1038 513 1038 c 0,5,6
 560 1038 560 1038 606 1026.5 c 128,-1,7
 652 1015 652 1015 693 995 c 128,-1,8
 734 975 734 975 770 947 c 128,-1,9
 806 919 806 919 833 885 c 1,10,11
 845 872 845 872 850.5 855 c 128,-1,12
 856 838 856 838 856 822 c 0,13,14
 856 801 856 801 848 782 c 128,-1,15
 840 763 840 763 827 748 c 128,-1,16
 814 733 814 733 795 724.5 c 128,-1,17
 776 716 776 716 755 716 c 0,18,19
 727 716 727 716 714 723.5 c 128,-1,20
 701 731 701 731 688.5 743.5 c 128,-1,21
 676 756 676 756 658 773 c 128,-1,22
 640 790 640 790 601 811 c 1,23,24
 555 830 555 830 513 830 c 0,25,26
 463 830 463 830 424.5 811 c 128,-1,27
 386 792 386 792 359.5 761.5 c 128,-1,28
 333 731 333 731 319.5 694 c 128,-1,29
 306 657 306 657 306 622 c 2,30,-1
 306 104 l 2,31,32
 306 83 306 83 297.5 64 c 128,-1,33
 289 45 289 45 274.5 31 c 128,-1,34
 260 17 260 17 241.5 8.5 c 128,-1,35
 223 0 223 0 201 0 c 0,36,37
 180 0 180 0 161 8.5 c 128,-1,38
 142 17 142 17 128 31 c 128,-1,39
 114 45 114 45 106 64 c 128,-1,40
 98 83 98 83 98 104 c 2,41,-1
 98 622 l 1,42,-1
 98 934 l 2,43,44
 98 954 98 954 106 973 c 128,-1,45
 114 992 114 992 128 1006 c 128,-1,46
 142 1020 142 1020 161 1029 c 128,-1,47
 180 1038 180 1038 201 1038 c 0,48,49
 231 1038 231 1038 257 1021.5 c 128,-1,50
 283 1005 283 1005 297 977 c 1,0,1
EndSplineSet
EndChar
StartChar: v
Encoding: 118 118 53
Width: 933
Flags: W
LayerCount: 2
Back
Fore
SplineSet
56 897 m 2,0,1
 48 918 48 918 48 936 c 0,2,3
 48 958 48 958 57.5 977 c 128,-1,4
 67 996 67 996 81.5 1009 c 128,-1,5
 96 1022 96 1022 115 1029.5 c 128,-1,6
 134 1037 134 1037 152 1037 c 0,7,8
 187 1037 187 1037 212.5 1017.5 c 128,-1,9
 238 998 238 998 249 970 c 2,10,-1
 464 398 l 1,11,-1
 678 970 l 2,12,13
 688 997 688 997 714 1017.5 c 128,-1,14
 740 1038 740 1038 773 1038 c 0,15,16
 794 1038 794 1038 812.5 1030 c 128,-1,17
 831 1022 831 1022 846 1008 c 128,-1,18
 861 994 861 994 869.5 974.5 c 128,-1,19
 878 955 878 955 878 933 c 1,20,21
 877 924 877 924 876 915 c 128,-1,22
 875 906 875 906 872 897 c 2,23,-1
 560 68 l 1,24,25
 554 49 554 49 542.5 36.5 c 128,-1,26
 531 24 531 24 517.5 16 c 128,-1,27
 504 8 504 8 490 4.5 c 128,-1,28
 476 1 476 1 464 1 c 0,29,30
 428 1 428 1 402.5 20 c 128,-1,31
 377 39 377 39 367 68 c 2,32,-1
 211 483 l 1,33,-1
 56 897 l 2,0,1
EndSplineSet
EndChar
StartChar: x
Encoding: 120 120 51
Width: 935
Flags: W
LayerCount: 2
Back
Fore
SplineSet
80 872 m 1,0,1
 69 885 69 885 63.5 899 c 128,-1,2
 58 913 58 913 58 930 c 0,3,4
 58 952 58 952 66 972 c 128,-1,5
 74 992 74 992 88 1006 c 128,-1,6
 102 1020 102 1020 121 1028.5 c 128,-1,7
 140 1037 140 1037 161 1037 c 0,8,9
 213 1037 213 1037 245 996 c 2,10,-1
 473 692 l 1,11,-1
 701 996 l 1,12,13
 730 1037 730 1037 784 1037 c 0,14,15
 805 1037 805 1037 823.5 1028.5 c 128,-1,16
 842 1020 842 1020 856 1006.5 c 128,-1,17
 870 993 870 993 878 973.5 c 128,-1,18
 886 954 886 954 886 933 c 0,19,20
 886 899 886 899 866 872 c 2,21,-1
 602 519 l 1,22,-1
 867 166 l 1,23,24
 888 136 888 136 888 102 c 0,25,26
 888 81 888 81 880 62 c 128,-1,27
 872 43 872 43 857 30 c 128,-1,28
 842 17 842 17 823.5 9 c 128,-1,29
 805 1 805 1 784 1 c 0,30,31
 732 1 732 1 702 41 c 2,32,-1
 474 347 l 1,33,-1
 245 41 l 2,34,35
 229 20 229 20 208.5 10.5 c 128,-1,36
 188 1 188 1 162 1 c 0,37,38
 139 1 139 1 119 10 c 128,-1,39
 99 19 99 19 86 33 c 128,-1,40
 73 47 73 47 65.5 66 c 128,-1,41
 58 85 58 85 58 106 c 0,42,43
 58 137 58 137 80 166 c 2,44,-1
 344 519 l 1,45,-1
 211 696 l 1,46,-1
 80 872 l 1,0,1
EndSplineSet
EndChar
StartChar: z
Encoding: 122 122 49
Width: 1032
Flags: W
LayerCount: 2
Back
Fore
SplineSet
205 830 m 2,0,1
 161 830 161 830 131.5 859.5 c 128,-1,2
 102 889 102 889 102 934 c 0,3,4
 102 954 102 954 110 973 c 128,-1,5
 118 992 118 992 132 1006 c 128,-1,6
 146 1020 146 1020 165 1029 c 128,-1,7
 184 1038 184 1038 205 1038 c 2,8,-1
 830 1038 l 2,9,10
 852 1038 852 1038 870.5 1029.5 c 128,-1,11
 889 1021 889 1021 903 1007 c 128,-1,12
 917 993 917 993 925.5 973.5 c 128,-1,13
 934 954 934 954 934 934 c 0,14,15
 934 911 934 911 927 894.5 c 128,-1,16
 920 878 920 878 907 864 c 1,17,-1
 414 207 l 1,18,-1
 828 207 l 2,19,20
 848 207 848 207 866.5 200 c 128,-1,21
 885 193 885 193 899.5 179 c 128,-1,22
 914 165 914 165 923 146 c 128,-1,23
 932 127 932 127 932 104 c 256,24,25
 932 81 932 81 923 61.5 c 128,-1,26
 914 42 914 42 899.5 28.5 c 128,-1,27
 885 15 885 15 866.5 7.5 c 128,-1,28
 848 0 848 0 828 0 c 2,29,-1
 205 0 l 1,30,-1
 205 1 l 1,31,32
 180 1 180 1 160.5 10.5 c 128,-1,33
 141 20 141 20 128 34 c 128,-1,34
 115 48 115 48 108.5 66.5 c 128,-1,35
 102 85 102 85 102 102 c 0,36,37
 103 119 103 119 107.5 135 c 128,-1,38
 112 151 112 151 123 166 c 2,39,-1
 623 830 l 1,40,-1
 415 830 l 1,41,-1
 205 830 l 2,0,1
EndSplineSet
EndChar
StartChar: asciitilde
Encoding: 126 126 176
Width: 1035
Flags: W
LayerCount: 2
Back
Fore
SplineSet
287 628 m 1,0,1
 258 588 258 588 206 588 c 0,2,3
 184 588 184 588 164.5 596 c 128,-1,4
 145 604 145 604 131.5 618.5 c 128,-1,5
 118 633 118 633 110 651.5 c 128,-1,6
 102 670 102 670 102 691 c 0,7,8
 102 718 102 718 117 743.5 c 128,-1,9
 132 769 132 769 154 790 c 128,-1,10
 176 811 176 811 201 826 c 128,-1,11
 226 841 226 841 246 848 c 0,12,13
 262 854 262 854 279.5 856.5 c 128,-1,14
 297 859 297 859 315 859 c 0,15,16
 346 859 346 859 373 853.5 c 128,-1,17
 400 848 400 848 430 836.5 c 128,-1,18
 460 825 460 825 495.5 805 c 128,-1,19
 531 785 531 785 577 756 c 1,20,-1
 578 755 l 1,21,22
 631 720 631 720 661.5 705.5 c 128,-1,23
 692 691 692 691 711 691 c 0,24,25
 731 691 731 691 744 707 c 0,26,27
 760 726 760 726 781.5 737.5 c 128,-1,28
 803 749 803 749 828 749 c 0,29,30
 847 749 847 749 865.5 741.5 c 128,-1,31
 884 734 884 734 899 720.5 c 128,-1,32
 914 707 914 707 923 687.5 c 128,-1,33
 932 668 932 668 932 646 c 0,34,35
 932 611 932 611 911 584 c 0,36,37
 826 469 826 469 722 469 c 0,38,39
 690 469 690 469 658 478.5 c 128,-1,40
 626 488 626 488 594 503.5 c 128,-1,41
 562 519 562 519 530 539 c 128,-1,42
 498 559 498 559 466 580 c 1,43,-1
 465 581 l 1,44,45
 448 592 448 592 427.5 604 c 128,-1,46
 407 616 407 616 387.5 627 c 128,-1,47
 368 638 368 638 351 645 c 128,-1,48
 334 652 334 652 325 652 c 0,49,50
 306 652 306 652 287 628 c 1,0,1
EndSplineSet
EndChar
StartChar: exclamdown
Encoding: 161 161 180
Width: 404
Flags: W
LayerCount: 2
Back
Fore
SplineSet
98 1348 m 2,0,1
 98 1369 98 1369 106 1387.5 c 128,-1,2
 114 1406 114 1406 128 1420.5 c 128,-1,3
 142 1435 142 1435 160.5 1443 c 128,-1,4
 179 1451 179 1451 201 1451 c 0,5,6
 246 1451 246 1451 275.5 1422 c 128,-1,7
 305 1393 305 1393 305 1348 c 2,8,-1
 305 1346 l 2,9,10
 305 1300 305 1300 274.5 1271.5 c 128,-1,11
 244 1243 244 1243 201 1243 c 0,12,13
 157 1243 157 1243 127.5 1272.5 c 128,-1,14
 98 1302 98 1302 98 1346 c 2,15,-1
 98 1347 l 1,16,-1
 98 1348 l 2,0,1
98 934 m 2,17,18
 98 954 98 954 106 973 c 128,-1,19
 114 992 114 992 128 1006 c 128,-1,20
 142 1020 142 1020 161 1029 c 128,-1,21
 180 1038 180 1038 201 1038 c 0,22,23
 223 1038 223 1038 242 1029.5 c 128,-1,24
 261 1021 261 1021 275 1006.5 c 128,-1,25
 289 992 289 992 297.5 973 c 128,-1,26
 306 954 306 954 306 934 c 2,27,-1
 306 104 l 2,28,29
 306 83 306 83 297.5 64 c 128,-1,30
 289 45 289 45 274.5 31 c 128,-1,31
 260 17 260 17 241.5 8.5 c 128,-1,32
 223 0 223 0 201 0 c 0,33,34
 180 0 180 0 161 8.5 c 128,-1,35
 142 17 142 17 128 31 c 128,-1,36
 114 45 114 45 106 64 c 128,-1,37
 98 83 98 83 98 104 c 2,38,-1
 98 934 l 2,17,18
EndSplineSet
EndChar
StartChar: cent
Encoding: 162 162 194
Width: 960
Flags: W
LayerCount: 2
Back
Fore
SplineSet
420 1110 m 2,0,1
 420 1131 420 1131 427.5 1150 c 128,-1,2
 435 1169 435 1169 449.5 1183.5 c 128,-1,3
 464 1198 464 1198 482.5 1206.5 c 128,-1,4
 501 1215 501 1215 523 1215 c 0,5,6
 544 1215 544 1215 563 1206.5 c 128,-1,7
 582 1198 582 1198 596 1183.5 c 128,-1,8
 610 1169 610 1169 618.5 1150.5 c 128,-1,9
 627 1132 627 1132 627 1110 c 2,10,-1
 627 1023 l 1,11,12
 667 1013 667 1013 703 995 c 0,13,14
 786 951 786 951 839 875 c 0,15,16
 857 848 857 848 857 817 c 0,17,18
 857 794 857 794 848 775 c 128,-1,19
 839 756 839 756 825 742 c 128,-1,20
 811 728 811 728 792.5 720 c 128,-1,21
 774 712 774 712 756 712 c 0,22,23
 699 712 699 712 667 759 c 0,24,25
 652 781 652 781 627 798 c 1,26,-1
 627 236 l 1,27,28
 648 251 648 251 666 276 c 1,29,30
 680 298 680 298 702.5 309 c 128,-1,31
 725 320 725 320 754 320 c 0,32,33
 772 320 772 320 790.5 312.5 c 128,-1,34
 809 305 809 305 823 290.5 c 128,-1,35
 837 276 837 276 845.5 257.5 c 128,-1,36
 854 239 854 239 854 217 c 0,37,38
 854 185 854 185 837 157 c 128,-1,39
 820 129 820 129 794.5 106 c 128,-1,40
 769 83 769 83 742 66 c 128,-1,41
 715 49 715 49 696 39 c 0,42,43
 663 23 663 23 627 14 c 1,44,-1
 627 -115 l 2,45,46
 627 -137 627 -137 618.5 -155.5 c 128,-1,47
 610 -174 610 -174 596 -188 c 128,-1,48
 582 -202 582 -202 562.5 -210 c 128,-1,49
 543 -218 543 -218 523 -218 c 0,50,51
 502 -218 502 -218 483 -209.5 c 128,-1,52
 464 -201 464 -201 450 -187.5 c 128,-1,53
 436 -174 436 -174 428 -155 c 128,-1,54
 420 -136 420 -136 420 -115 c 2,55,-1
 420 8 l 1,56,57
 377 17 377 17 340 33 c 0,58,59
 263 67 263 67 209.5 132.5 c 128,-1,60
 156 198 156 198 127 295 c 128,-1,61
 98 392 98 392 98 519 c 0,62,63
 98 654 98 654 129.5 751.5 c 128,-1,64
 161 849 161 849 216 913 c 128,-1,65
 271 977 271 977 347 1007 c 0,66,67
 382 1021 382 1021 420 1029 c 1,68,-1
 420 1110 l 2,0,1
355 755 m 0,69,70
 306 679 306 679 306 519 c 0,71,72
 306 427 306 427 321 367 c 128,-1,73
 336 307 336 307 363 271 c 0,74,75
 386 240 386 240 420 225 c 1,76,-1
 420 811 l 1,77,78
 379 792 379 792 355 755 c 0,69,70
EndSplineSet
EndChar
StartChar: yen
Encoding: 165 165 195
Width: 1251
Flags: W
LayerCount: 2
Back
Fore
SplineSet
278 104 m 2,0,1
 256 104 256 104 237 112.5 c 128,-1,2
 218 121 218 121 204.5 135 c 128,-1,3
 191 149 191 149 183 168 c 128,-1,4
 175 187 175 187 175 207 c 0,5,6
 175 228 175 228 183 247 c 128,-1,7
 191 266 191 266 205 280.5 c 128,-1,8
 219 295 219 295 237.5 303.5 c 128,-1,9
 256 312 256 312 278 312 c 2,10,-1
 525 312 l 1,11,-1
 525 394 l 1,12,-1
 469 518 l 1,13,-1
 278 518 l 2,14,15
 256 518 256 518 237.5 526.5 c 128,-1,16
 219 535 219 535 205 549 c 128,-1,17
 191 563 191 563 183 581.5 c 128,-1,18
 175 600 175 600 175 622 c 0,19,20
 175 643 175 643 183 661.5 c 128,-1,21
 191 680 191 680 204.5 694.5 c 128,-1,22
 218 709 218 709 237 717 c 128,-1,23
 256 725 256 725 278 725 c 2,24,-1
 376 725 l 1,25,-1
 325 839 l 1,26,-1
 117 1306 l 2,27,28
 107 1329 107 1329 107 1347 c 0,29,30
 107 1367 107 1367 115 1385.5 c 128,-1,31
 123 1404 123 1404 136.5 1419 c 128,-1,32
 150 1434 150 1434 169.5 1443 c 128,-1,33
 189 1452 189 1452 211 1452 c 0,34,35
 243 1452 243 1452 268.5 1434.5 c 128,-1,36
 294 1417 294 1417 306 1391 c 2,37,-1
 603 725 l 1,38,-1
 653 725 l 1,39,-1
 946 1391 l 2,40,41
 959 1419 959 1419 984.5 1435.5 c 128,-1,42
 1010 1452 1010 1452 1042 1452 c 0,43,44
 1063 1452 1063 1452 1082 1444 c 128,-1,45
 1101 1436 1101 1436 1114.5 1421.5 c 128,-1,46
 1128 1407 1128 1407 1136.5 1388.5 c 128,-1,47
 1145 1370 1145 1370 1145 1349 c 256,48,49
 1145 1328 1145 1328 1136 1307 c 2,50,-1
 879 725 l 1,51,-1
 973 725 l 2,52,53
 994 725 994 725 1013 717 c 128,-1,54
 1032 709 1032 709 1045.5 695 c 128,-1,55
 1059 681 1059 681 1067.5 662 c 128,-1,56
 1076 643 1076 643 1076 622 c 0,57,58
 1076 600 1076 600 1067.5 581.5 c 128,-1,59
 1059 563 1059 563 1045.5 549 c 128,-1,60
 1032 535 1032 535 1013 526.5 c 128,-1,61
 994 518 994 518 973 518 c 2,62,-1
 786 518 l 1,63,-1
 732 394 l 1,64,-1
 732 312 l 1,65,-1
 973 312 l 2,66,67
 994 312 994 312 1013 303.5 c 128,-1,68
 1032 295 1032 295 1045.5 280.5 c 128,-1,69
 1059 266 1059 266 1067.5 247 c 128,-1,70
 1076 228 1076 228 1076 207 c 0,71,72
 1076 187 1076 187 1067.5 168 c 128,-1,73
 1059 149 1059 149 1045.5 135 c 128,-1,74
 1032 121 1032 121 1013.5 112.5 c 128,-1,75
 995 104 995 104 973 104 c 2,76,-1
 732 104 l 1,77,78
 732 82 732 82 723.5 62.5 c 128,-1,79
 715 43 715 43 701 29.5 c 128,-1,80
 687 16 687 16 668.5 8 c 128,-1,81
 650 0 650 0 629 0 c 0,82,83
 607 0 607 0 588.5 8.5 c 128,-1,84
 570 17 570 17 555.5 31 c 128,-1,85
 541 45 541 45 533 64 c 128,-1,86
 525 83 525 83 525 104 c 1,87,-1
 278 104 l 2,0,1
EndSplineSet
EndChar
StartChar: dieresis
Encoding: 168 168 102
Width: 1145
Flags: W
LayerCount: 2
Back
Fore
SplineSet
354 1452 m 0,0,1
 457 1452 457 1452 457 1348 c 0,2,3
 457 1245 457 1245 354 1245 c 0,4,5
 250 1245 250 1245 250 1348 c 0,6,7
 250 1452 250 1452 354 1452 c 0,0,1
768 1452 m 256,8,9
 872 1452 872 1452 872 1348 c 0,10,11
 872 1245 872 1245 768 1245 c 256,12,13
 664 1245 664 1245 664 1348 c 0,14,15
 664 1452 664 1452 768 1452 c 256,8,9
EndSplineSet
EndChar
StartChar: logicalnot
Encoding: 172 172 203
Width: 951
Flags: W
LayerCount: 2
Back
Fore
SplineSet
201 312 m 2,0,1
 181 312 181 312 161.5 320 c 128,-1,2
 142 328 142 328 128.5 342 c 128,-1,3
 115 356 115 356 106.5 375 c 128,-1,4
 98 394 98 394 98 415 c 0,5,6
 98 435 98 435 106 454.5 c 128,-1,7
 114 474 114 474 128 488 c 128,-1,8
 142 502 142 502 161 510.5 c 128,-1,9
 180 519 180 519 201 519 c 2,10,-1
 760 519 l 2,11,12
 780 519 780 519 799.5 510.5 c 128,-1,13
 819 502 819 502 832.5 488 c 128,-1,14
 846 474 846 474 854.5 454.5 c 128,-1,15
 863 435 863 435 863 415 c 0,16,17
 863 404 863 404 861 394 c 1,18,-1
 861 232 l 2,19,20
 861 210 861 210 852.5 191.5 c 128,-1,21
 844 173 844 173 830 158.5 c 128,-1,22
 816 144 816 144 797 136 c 128,-1,23
 778 128 778 128 757 128 c 0,24,25
 735 128 735 128 716.5 136 c 128,-1,26
 698 144 698 144 683.5 158.5 c 128,-1,27
 669 173 669 173 661.5 191.5 c 128,-1,28
 654 210 654 210 654 232 c 2,29,-1
 654 312 l 1,30,-1
 201 312 l 2,0,1
EndSplineSet
EndChar
StartChar: twosuperior
Encoding: 178 178 210
Width: 1204
Flags: W
LayerCount: 2
Back
Fore
SplineSet
0 777 m 1,0,-1
 1204 777 l 1,1,-1
 1204 682 l 1,2,-1
 0 682 l 1,3,-1
 0 777 l 1,0,-1
EndSplineSet
EndChar
StartChar: threesuperior
Encoding: 179 179 207
Width: 217
Flags: W
LayerCount: 2
Back
Fore
SplineSet
6 1348 m 2,0,1
 6 1369 6 1369 14 1388 c 128,-1,2
 22 1407 22 1407 36 1421.5 c 128,-1,3
 50 1436 50 1436 68.5 1444 c 128,-1,4
 87 1452 87 1452 109 1452 c 256,5,6
 131 1452 131 1452 149.5 1444 c 128,-1,7
 168 1436 168 1436 182.5 1421.5 c 128,-1,8
 197 1407 197 1407 205 1388.5 c 128,-1,9
 213 1370 213 1370 213 1348 c 2,10,-1
 213 -311 l 2,11,12
 213 -332 213 -332 205 -351 c 128,-1,13
 197 -370 197 -370 182.5 -384 c 128,-1,14
 168 -398 168 -398 149 -406 c 128,-1,15
 130 -414 130 -414 109 -414 c 256,16,17
 88 -414 88 -414 69 -405.5 c 128,-1,18
 50 -397 50 -397 36.5 -383.5 c 128,-1,19
 23 -370 23 -370 14.5 -350.5 c 128,-1,20
 6 -331 6 -331 6 -311 c 2,21,-1
 6 519 l 1,22,-1
 6 1348 l 2,0,1
EndSplineSet
EndChar
StartChar: mu
Encoding: 181 181 173
Width: 1026
Flags: W
LayerCount: 2
Back
Fore
SplineSet
98 934 m 2,0,1
 98 956 98 956 106.5 975.5 c 128,-1,2
 115 995 115 995 129 1008.5 c 128,-1,3
 143 1022 143 1022 162 1030 c 128,-1,4
 181 1038 181 1038 201 1038 c 0,5,6
 223 1038 223 1038 242 1029.5 c 128,-1,7
 261 1021 261 1021 275 1006.5 c 128,-1,8
 289 992 289 992 297.5 973 c 128,-1,9
 306 954 306 954 306 934 c 2,10,-1
 306 404 l 1,11,12
 308 369 308 369 321 336 c 1,13,14
 337 299 337 299 364.5 270 c 128,-1,15
 392 241 392 241 430 224 c 128,-1,16
 468 207 468 207 513 207 c 0,17,18
 561 207 561 207 599.5 225.5 c 128,-1,19
 638 244 638 244 665 273 c 128,-1,20
 692 302 692 302 706 339 c 128,-1,21
 720 376 720 376 720 415 c 2,22,-1
 720 934 l 2,23,24
 720 954 720 954 728.5 973 c 128,-1,25
 737 992 737 992 751 1006.5 c 128,-1,26
 765 1021 765 1021 784 1029.5 c 128,-1,27
 803 1038 803 1038 825 1038 c 0,28,29
 846 1038 846 1038 864.5 1029 c 128,-1,30
 883 1020 883 1020 897.5 1006 c 128,-1,31
 912 992 912 992 920 973 c 128,-1,32
 928 954 928 954 928 934 c 2,33,-1
 928 207 l 1,34,35
 945 205 945 205 962 197 c 128,-1,36
 979 189 979 189 992 175 c 128,-1,37
 1005 161 1005 161 1013 143.5 c 128,-1,38
 1021 126 1021 126 1021 104 c 0,39,40
 1021 83 1021 83 1012.5 64 c 128,-1,41
 1004 45 1004 45 990 31 c 128,-1,42
 976 17 976 17 957.5 8.5 c 128,-1,43
 939 0 939 0 917 0 c 0,44,45
 885 0 885 0 850.5 12.5 c 128,-1,46
 816 25 816 25 786 49 c 0,47,48
 770 63 770 63 757 80 c 1,49,50
 719 52 719 52 674 32 c 0,51,52
 598 0 598 0 513 0 c 0,53,54
 456 0 456 0 402 15 c 0,55,56
 354 28 354 28 306 55 c 1,57,-1
 306 -357 l 2,58,59
 306 -378 306 -378 297.5 -397 c 128,-1,60
 289 -416 289 -416 274.5 -430 c 128,-1,61
 260 -444 260 -444 241.5 -452.5 c 128,-1,62
 223 -461 223 -461 201 -461 c 0,63,64
 180 -461 180 -461 161 -452.5 c 128,-1,65
 142 -444 142 -444 128 -430 c 128,-1,66
 114 -416 114 -416 106 -397 c 128,-1,67
 98 -378 98 -378 98 -357 c 2,68,-1
 98 934 l 2,0,1
EndSplineSet
EndChar
StartChar: periodcentered
Encoding: 183 183 179
Width: 403
Flags: W
LayerCount: 2
Back
Fore
SplineSet
305 933 m 2,0,1
 305 888 305 888 275.5 858.5 c 128,-1,2
 246 829 246 829 201 829 c 0,3,4
 179 829 179 829 160.5 837.5 c 128,-1,5
 142 846 142 846 128 860.5 c 128,-1,6
 114 875 114 875 106 893.5 c 128,-1,7
 98 912 98 912 98 933 c 2,8,-1
 98 935 l 2,9,10
 98 955 98 955 106 974 c 128,-1,11
 114 993 114 993 128 1007 c 128,-1,12
 142 1021 142 1021 160.5 1029.5 c 128,-1,13
 179 1038 179 1038 201 1038 c 0,14,15
 222 1038 222 1038 241 1030 c 128,-1,16
 260 1022 260 1022 274 1008.5 c 128,-1,17
 288 995 288 995 296.5 976 c 128,-1,18
 305 957 305 957 305 935 c 2,19,-1
 305 934 l 1,20,-1
 305 933 l 2,0,1
EndSplineSet
EndChar
StartChar: Aring
Encoding: 197 197 153
Width: 1249
Flags: W
LayerCount: 2
Back
Fore
SplineSet
627 1899 m 0,0,1
 687 1899 687 1899 746.5 1875.5 c 128,-1,2
 806 1852 806 1852 852 1809.5 c 128,-1,3
 898 1767 898 1767 927 1706 c 128,-1,4
 956 1645 956 1645 956 1570 c 0,5,6
 956 1521 956 1521 942.5 1476 c 128,-1,7
 929 1431 929 1431 903.5 1391.5 c 128,-1,8
 878 1352 878 1352 842 1320.5 c 128,-1,9
 806 1289 806 1289 761 1269 c 1,10,-1
 1033 452 l 1,11,12
 1031 454 1031 454 1031 454 c 1,13,-1
 1031 453 l 2,14,15
 1031 452 1031 452 1032 450 c 0,16,17
 1034 446 1034 446 1036 444 c 1,18,-1
 1138 136 l 2,19,20
 1141 127 1141 127 1142 118.5 c 128,-1,21
 1143 110 1143 110 1143 102 c 0,22,23
 1143 81 1143 81 1134.5 62 c 128,-1,24
 1126 43 1126 43 1112 30 c 128,-1,25
 1098 17 1098 17 1079 9 c 128,-1,26
 1060 1 1060 1 1040 1 c 0,27,28
 1004 1 1004 1 978 20.5 c 128,-1,29
 952 40 952 40 942 71 c 2,30,-1
 862 312 l 1,31,-1
 389 312 l 1,32,-1
 309 71 l 2,33,34
 298 39 298 39 271.5 20 c 128,-1,35
 245 1 245 1 210 1 c 0,36,37
 188 1 188 1 168.5 9.5 c 128,-1,38
 149 18 149 18 135.5 32 c 128,-1,39
 122 46 122 46 114 65 c 128,-1,40
 106 84 106 84 106 103 c 0,41,42
 106 119 106 119 112 136 c 2,43,-1
 215 444 l 1,44,45
 215 444 215 444 217 452 c 2,46,-1
 490 1270 l 1,47,48
 447 1289 447 1289 411.5 1320.5 c 128,-1,49
 376 1352 376 1352 351 1391.5 c 128,-1,50
 326 1431 326 1431 312.5 1476.5 c 128,-1,51
 299 1522 299 1522 299 1570 c 0,52,53
 299 1632 299 1632 322.5 1691.5 c 128,-1,54
 346 1751 346 1751 389 1797 c 128,-1,55
 432 1843 432 1843 492.5 1871 c 128,-1,56
 553 1899 553 1899 627 1899 c 0,0,1
793 519 m 1,57,-1
 625 1022 l 1,58,-1
 457 519 l 1,59,-1
 793 519 l 1,57,-1
713 1656 m 1,60,61
 693 1674 693 1674 673 1682.5 c 128,-1,62
 653 1691 653 1691 627 1691 c 0,63,64
 595 1691 595 1691 571.5 1678.5 c 128,-1,65
 548 1666 548 1666 534 1647.5 c 128,-1,66
 520 1629 520 1629 513 1608 c 128,-1,67
 506 1587 506 1587 506 1570 c 0,68,69
 506 1531 506 1531 531 1495.5 c 128,-1,70
 556 1460 556 1460 605 1450 c 1,71,72
 610 1451 610 1451 615 1451 c 128,-1,73
 620 1451 620 1451 625 1451 c 256,74,75
 630 1451 630 1451 635 1451 c 128,-1,76
 640 1451 640 1451 645 1450 c 1,77,78
 660 1451 660 1451 679 1459.5 c 128,-1,79
 698 1468 698 1468 713 1484 c 128,-1,80
 728 1500 728 1500 738.5 1521.5 c 128,-1,81
 749 1543 749 1543 749 1570 c 0,82,83
 749 1592 749 1592 739.5 1615.5 c 128,-1,84
 730 1639 730 1639 713 1656 c 1,60,61
EndSplineSet
EndChar
StartChar: AE
Encoding: 198 198 171
Width: 1720
Flags: W
LayerCount: 2
Back
Fore
SplineSet
1521 1452 m 2,0,1
 1543 1452 1543 1452 1561.5 1444 c 128,-1,2
 1580 1436 1580 1436 1594.5 1421.5 c 128,-1,3
 1609 1407 1609 1407 1617 1388.5 c 128,-1,4
 1625 1370 1625 1370 1625 1348 c 0,5,6
 1625 1328 1625 1328 1617.5 1309 c 128,-1,7
 1610 1290 1610 1290 1595.5 1276 c 128,-1,8
 1581 1262 1581 1262 1562 1253.5 c 128,-1,9
 1543 1245 1543 1245 1521 1245 c 2,10,-1
 1024 1244 l 1,11,-1
 1024 830 l 1,12,-1
 1314 830 l 2,13,14
 1334 830 1334 830 1352.5 823 c 128,-1,15
 1371 816 1371 816 1385 802 c 128,-1,16
 1399 788 1399 788 1408 769 c 128,-1,17
 1417 750 1417 750 1417 726 c 0,18,19
 1417 703 1417 703 1408 683.5 c 128,-1,20
 1399 664 1399 664 1385 650.5 c 128,-1,21
 1371 637 1371 637 1352.5 629.5 c 128,-1,22
 1334 622 1334 622 1314 622 c 2,23,-1
 1024 622 l 1,24,-1
 1024 207 l 1,25,-1
 1521 207 l 2,26,27
 1542 207 1542 207 1561 199 c 128,-1,28
 1580 191 1580 191 1594.5 177 c 128,-1,29
 1609 163 1609 163 1617 144 c 128,-1,30
 1625 125 1625 125 1625 104 c 256,31,32
 1625 83 1625 83 1617 64 c 128,-1,33
 1609 45 1609 45 1594.5 31 c 128,-1,34
 1580 17 1580 17 1561.5 8.5 c 128,-1,35
 1543 0 1543 0 1521 0 c 2,36,-1
 920 0 l 2,37,38
 898 0 898 0 879.5 8.5 c 128,-1,39
 861 17 861 17 846.5 31 c 128,-1,40
 832 45 832 45 824.5 64 c 128,-1,41
 817 83 817 83 817 104 c 2,42,-1
 817 312 l 1,43,-1
 389 312 l 1,44,-1
 309 71 l 2,45,46
 298 39 298 39 271.5 20 c 128,-1,47
 245 1 245 1 210 1 c 0,48,49
 188 1 188 1 168.5 9.5 c 128,-1,50
 149 18 149 18 135.5 32 c 128,-1,51
 122 46 122 46 114 65 c 128,-1,52
 106 84 106 84 106 103 c 0,53,54
 106 119 106 119 112 136 c 2,55,-1
 528 1382 l 2,56,57
 539 1412 539 1412 564 1432 c 1,58,59
 589 1450 589 1450 620 1451 c 1,60,-1
 625 1451 l 1,61,-1
 627 1451 l 1,62,-1
 1521 1452 l 2,0,1
457 519 m 1,63,-1
 817 519 l 1,64,-1
 817 1244 l 1,65,-1
 694 1244 l 1,66,-1
 625 1022 l 1,67,-1
 457 519 l 1,63,-1
EndSplineSet
EndChar
StartChar: Ecircumflex
Encoding: 202 202 134
Width: 1234
Flags: W
LayerCount: 2
Back
Fore
SplineSet
1032 1452 m 2,0,1
 1053 1452 1053 1452 1072 1444 c 128,-1,2
 1091 1436 1091 1436 1105 1421.5 c 128,-1,3
 1119 1407 1119 1407 1127.5 1388.5 c 128,-1,4
 1136 1370 1136 1370 1136 1348 c 0,5,6
 1136 1328 1136 1328 1128 1309 c 128,-1,7
 1120 1290 1120 1290 1106 1276 c 128,-1,8
 1092 1262 1092 1262 1072.5 1253.5 c 128,-1,9
 1053 1245 1053 1245 1032 1245 c 2,10,-1
 306 1245 l 1,11,-1
 306 830 l 1,12,-1
 825 830 l 2,13,14
 844 830 844 830 863 823 c 128,-1,15
 882 816 882 816 896 802 c 128,-1,16
 910 788 910 788 919 769 c 128,-1,17
 928 750 928 750 928 726 c 0,18,19
 928 703 928 703 919 683.5 c 128,-1,20
 910 664 910 664 896 650.5 c 128,-1,21
 882 637 882 637 863 629.5 c 128,-1,22
 844 622 844 622 825 622 c 2,23,-1
 306 622 l 1,24,-1
 306 207 l 1,25,-1
 1032 207 l 2,26,27
 1052 207 1052 207 1071.5 199 c 128,-1,28
 1091 191 1091 191 1105 177 c 128,-1,29
 1119 163 1119 163 1127.5 144 c 128,-1,30
 1136 125 1136 125 1136 104 c 256,31,32
 1136 83 1136 83 1127.5 64 c 128,-1,33
 1119 45 1119 45 1105 31 c 128,-1,34
 1091 17 1091 17 1072 8.5 c 128,-1,35
 1053 0 1053 0 1032 0 c 2,36,-1
 201 0 l 2,37,38
 180 0 180 0 161 8.5 c 128,-1,39
 142 17 142 17 128 31 c 128,-1,40
 114 45 114 45 106 64 c 128,-1,41
 98 83 98 83 98 104 c 2,42,-1
 98 1348 l 2,43,44
 98 1369 98 1369 106 1388 c 128,-1,45
 114 1407 114 1407 128 1421.5 c 128,-1,46
 142 1436 142 1436 161 1444 c 128,-1,47
 180 1452 180 1452 201 1452 c 2,48,-1
 1032 1452 l 2,0,1
542 1544 m 1,49,50
 513 1514 513 1514 469 1514 c 0,51,52
 446 1514 446 1514 427.5 1522.5 c 128,-1,53
 409 1531 409 1531 395 1545.5 c 128,-1,54
 381 1560 381 1560 373.5 1578.5 c 128,-1,55
 366 1597 366 1597 366 1618 c 0,56,57
 366 1661 366 1661 396 1691 c 2,58,-1
 544 1839 l 1,59,60
 572 1869 572 1869 617 1869 c 0,61,62
 660 1869 660 1869 691 1839 c 2,63,-1
 838 1691 l 2,64,65
 869 1661 869 1661 869 1618 c 0,66,67
 869 1596 869 1596 860.5 1577.5 c 128,-1,68
 852 1559 852 1559 838.5 1544.5 c 128,-1,69
 825 1530 825 1530 805.5 1522 c 128,-1,70
 786 1514 786 1514 766 1514 c 0,71,72
 720 1514 720 1514 692 1544 c 1,73,-1
 617 1619 l 1,74,-1
 580 1581 l 1,75,-1
 542 1544 l 1,49,50
EndSplineSet
EndChar
StartChar: Eth
Encoding: 208 208 160
Width: 1234
Flags: W
LayerCount: 2
Back
Fore
SplineSet
95 609 m 2,0,1
 75 609 75 609 55.5 617.5 c 128,-1,2
 36 626 36 626 22.5 640 c 128,-1,3
 9 654 9 654 0.5 673 c 128,-1,4
 -8 692 -8 692 -8 712 c 0,5,6
 -8 733 -8 733 0 752 c 128,-1,7
 8 771 8 771 22 785.5 c 128,-1,8
 36 800 36 800 55 808.5 c 128,-1,9
 74 817 74 817 95 817 c 2,10,-1
 98 817 l 1,11,-1
 98 1348 l 2,12,13
 98 1369 98 1369 106 1388 c 128,-1,14
 114 1407 114 1407 128 1421.5 c 128,-1,15
 142 1436 142 1436 161 1444 c 128,-1,16
 180 1452 180 1452 201 1452 c 2,17,-1
 617 1452 l 2,18,19
 746 1452 746 1452 843 1409.5 c 128,-1,20
 940 1367 940 1367 1005 1278 c 128,-1,21
 1070 1189 1070 1189 1103 1052 c 128,-1,22
 1136 915 1136 915 1136 726 c 0,23,24
 1136 527 1136 527 1101 389 c 128,-1,25
 1066 251 1066 251 1000 164.5 c 128,-1,26
 934 78 934 78 837.5 39 c 128,-1,27
 741 0 741 0 617 0 c 2,28,-1
 211 1 l 2,29,30
 209 1 209 1 208 0.5 c 128,-1,31
 207 0 207 0 206 0 c 2,32,-1
 201 0 l 2,33,34
 180 0 180 0 161 8.5 c 128,-1,35
 142 17 142 17 128 31 c 128,-1,36
 114 45 114 45 106 64 c 128,-1,37
 98 83 98 83 98 104 c 2,38,-1
 98 609 l 1,39,-1
 95 609 l 2,0,1
617 207 m 2,40,41
 703 207 703 207 762 235.5 c 128,-1,42
 821 264 821 264 857.5 326 c 128,-1,43
 894 388 894 388 911 487 c 128,-1,44
 928 586 928 586 928 726 c 0,45,46
 928 835 928 835 917 930 c 128,-1,47
 906 1025 906 1025 872.5 1095 c 128,-1,48
 839 1165 839 1165 778 1205 c 128,-1,49
 717 1245 717 1245 617 1245 c 2,50,-1
 306 1245 l 1,51,-1
 306 817 l 1,52,-1
 615 817 l 2,53,54
 636 817 636 817 655 808.5 c 128,-1,55
 674 800 674 800 688 785.5 c 128,-1,56
 702 771 702 771 710 752 c 128,-1,57
 718 733 718 733 718 712 c 0,58,59
 718 692 718 692 710 673 c 128,-1,60
 702 654 702 654 688 640 c 128,-1,61
 674 626 674 626 655 617.5 c 128,-1,62
 636 609 636 609 615 609 c 2,63,-1
 306 609 l 1,64,-1
 306 207 l 1,65,-1
 617 207 l 2,40,41
EndSplineSet
EndChar
StartChar: Oslash
Encoding: 216 216 152
Width: 1234
Flags: W
LayerCount: 2
Back
Fore
SplineSet
617 1452 m 0,0,1
 648 1452 648 1452 676 1449.5 c 128,-1,2
 704 1447 704 1447 731 1442 c 1,3,4
 755 1452 755 1452 777 1452 c 0,5,6
 792 1452 792 1452 807.5 1447.5 c 128,-1,7
 823 1443 823 1443 835.5 1434.5 c 128,-1,8
 848 1426 848 1426 858 1414.5 c 128,-1,9
 868 1403 868 1403 871 1391 c 1,10,11
 1004 1316 1004 1316 1070 1147.5 c 128,-1,12
 1136 979 1136 979 1136 726 c 0,13,14
 1136 367 1136 367 1004 183.5 c 128,-1,15
 872 0 872 0 617 0 c 0,16,17
 587 0 587 0 558.5 2.5 c 128,-1,18
 530 5 530 5 503 10 c 1,19,20
 484 0 484 0 458 0 c 0,21,22
 439 0 439 0 425.5 4.5 c 128,-1,23
 412 9 412 9 400.5 17.5 c 128,-1,24
 389 26 389 26 380 36.5 c 128,-1,25
 371 47 371 47 363 60 c 1,26,27
 234 134 234 134 166 299 c 128,-1,28
 98 464 98 464 98 726 c 0,29,30
 98 1081 98 1081 228 1266.5 c 128,-1,31
 358 1452 358 1452 617 1452 c 0,0,1
617 1245 m 0,32,33
 532 1245 532 1245 472.5 1212 c 128,-1,34
 413 1179 413 1179 376 1114.5 c 128,-1,35
 339 1050 339 1050 322.5 952.5 c 128,-1,36
 306 855 306 855 306 726 c 0,37,38
 306 578 306 578 329 470.5 c 128,-1,39
 352 363 352 363 401 298 c 1,40,-1
 642 1244 l 1,41,42
 636 1245 636 1245 630 1245 c 128,-1,43
 624 1245 624 1245 617 1245 c 0,32,33
617 207 m 2,44,45
 702 207 702 207 761.5 238.5 c 128,-1,46
 821 270 821 270 857.5 334.5 c 128,-1,47
 894 399 894 399 911 497 c 128,-1,48
 928 595 928 595 928 726 c 0,49,50
 928 881 928 881 904.5 984.5 c 128,-1,51
 881 1088 881 1088 832 1153 c 1,52,-1
 592 207 l 1,53,-1
 617 207 l 2,44,45
EndSplineSet
EndChar
StartChar: germandbls
Encoding: 223 223 48
Width: 1026
Flags: W
LayerCount: 2
Back
Fore
SplineSet
306 104 m 2,0,1
 306 83 306 83 297.5 64 c 128,-1,2
 289 45 289 45 274.5 31 c 128,-1,3
 260 17 260 17 241.5 8.5 c 128,-1,4
 223 0 223 0 201 0 c 0,5,6
 180 0 180 0 161 8.5 c 128,-1,7
 142 17 142 17 128 31 c 128,-1,8
 114 45 114 45 106 64 c 128,-1,9
 98 83 98 83 98 104 c 2,10,-1
 98 1142 l 2,11,12
 98 1187 98 1187 115.5 1241 c 128,-1,13
 133 1295 133 1295 170 1342.5 c 128,-1,14
 207 1390 207 1390 266.5 1421 c 128,-1,15
 326 1452 326 1452 411 1452 c 2,16,-1
 412 1452 l 2,17,18
 439 1452 439 1452 467.5 1451.5 c 128,-1,19
 496 1451 496 1451 524 1451 c 2,20,-1
 628 1451 l 2,21,22
 685 1451 685 1451 738.5 1427.5 c 128,-1,23
 792 1404 792 1404 833.5 1363 c 128,-1,24
 875 1322 875 1322 900 1265.5 c 128,-1,25
 925 1209 925 1209 927 1143 c 1,26,-1
 927 1141 l 2,27,28
 927 1079 927 1079 903.5 1022 c 128,-1,29
 880 965 880 965 835 921 c 2,30,-1
 826 912 l 2,31,32
 824 910 824 910 821.5 907.5 c 128,-1,33
 819 905 819 905 817 904 c 1,34,35
 818 900 818 900 821.5 895.5 c 128,-1,36
 825 891 825 891 827 889 c 0,37,38
 878 825 878 825 903 729 c 128,-1,39
 928 633 928 633 928 519 c 0,40,41
 928 396 928 396 900 299.5 c 128,-1,42
 872 203 872 203 819 137 c 128,-1,43
 766 71 766 71 688.5 35.5 c 128,-1,44
 611 0 611 0 513 0 c 0,45,46
 491 0 491 0 472.5 8.5 c 128,-1,47
 454 17 454 17 440 31 c 128,-1,48
 426 45 426 45 417.5 64 c 128,-1,49
 409 83 409 83 409 104 c 256,50,51
 409 125 409 125 417.5 144 c 128,-1,52
 426 163 426 163 440 177 c 128,-1,53
 454 191 454 191 472.5 199 c 128,-1,54
 491 207 491 207 513 207 c 0,55,56
 558 207 558 207 596.5 222 c 128,-1,57
 635 237 635 237 662.5 273.5 c 128,-1,58
 690 310 690 310 705 369 c 128,-1,59
 720 428 720 428 720 519 c 0,60,61
 720 594 720 594 709 652 c 128,-1,62
 698 710 698 710 673 749.5 c 128,-1,63
 648 789 648 789 608.5 809.5 c 128,-1,64
 569 830 569 830 513 830 c 1,65,-1
 513 1038 l 1,66,-1
 615 1038 l 2,67,68
 626 1038 626 1038 643.5 1042 c 128,-1,69
 661 1046 661 1046 678 1057 c 128,-1,70
 695 1068 695 1068 707 1088.5 c 128,-1,71
 719 1109 719 1109 719 1141 c 1,72,-1
 720 1142 l 1,73,74
 718 1173 718 1173 706.5 1193 c 128,-1,75
 695 1213 695 1213 680 1224 c 128,-1,76
 665 1235 665 1235 650.5 1239.5 c 128,-1,77
 636 1244 636 1244 628 1244 c 1,78,-1
 627 1245 l 1,79,-1
 522 1245 l 2,80,81
 494 1245 494 1245 466 1245.5 c 128,-1,82
 438 1246 438 1246 410 1246 c 0,83,84
 378 1246 378 1246 359 1235 c 128,-1,85
 340 1224 340 1224 329.5 1211.5 c 128,-1,86
 319 1199 319 1199 316 1189 c 128,-1,87
 313 1179 313 1179 313 1182 c 1,88,89
 309 1170 309 1170 307.5 1159.5 c 128,-1,90
 306 1149 306 1149 306 1142 c 2,91,-1
 306 623 l 1,92,-1
 306 104 l 2,0,1
EndSplineSet
EndChar
StartChar: aring
Encoding: 229 229 139
Width: 1145
Flags: W
LayerCount: 2
Back
Fore
SplineSet
545 1747 m 0,0,1
 605 1747 605 1747 664.5 1724 c 128,-1,2
 724 1701 724 1701 770.5 1658.5 c 128,-1,3
 817 1616 817 1616 846 1555 c 128,-1,4
 875 1494 875 1494 875 1419 c 0,5,6
 875 1355 875 1355 850.5 1295.5 c 128,-1,7
 826 1236 826 1236 782.5 1190.5 c 128,-1,8
 739 1145 739 1145 678.5 1117.5 c 128,-1,9
 618 1090 618 1090 545 1090 c 0,10,11
 482 1090 482 1090 422.5 1114.5 c 128,-1,12
 363 1139 363 1139 317 1182 c 128,-1,13
 271 1225 271 1225 244 1285.5 c 128,-1,14
 217 1346 217 1346 217 1419 c 0,15,16
 217 1481 217 1481 240.5 1540.5 c 128,-1,17
 264 1600 264 1600 307.5 1645.5 c 128,-1,18
 351 1691 351 1691 411.5 1719 c 128,-1,19
 472 1747 472 1747 545 1747 c 0,0,1
632 1505 m 1,20,21
 611 1522 611 1522 591 1531 c 128,-1,22
 571 1540 571 1540 545 1540 c 0,23,24
 513 1540 513 1540 490 1527 c 128,-1,25
 467 1514 467 1514 452.5 1496 c 128,-1,26
 438 1478 438 1478 431.5 1457 c 128,-1,27
 425 1436 425 1436 425 1419 c 0,28,29
 425 1398 425 1398 432.5 1376.5 c 128,-1,30
 440 1355 440 1355 456 1337.5 c 128,-1,31
 472 1320 472 1320 494 1308.5 c 128,-1,32
 516 1297 516 1297 545 1297 c 0,33,34
 562 1297 562 1297 583 1303.5 c 128,-1,35
 604 1310 604 1310 623 1324.5 c 128,-1,36
 642 1339 642 1339 654.5 1362.5 c 128,-1,37
 667 1386 667 1386 667 1419 c 0,38,39
 667 1441 667 1441 658 1464.5 c 128,-1,40
 649 1488 649 1488 632 1505 c 1,20,21
513 1038 m 0,41,42
 578 1038 578 1038 631.5 1022 c 128,-1,43
 685 1006 685 1006 738 976 c 1,44,45
 752 1004 752 1004 777.5 1020.5 c 128,-1,46
 803 1037 803 1037 833 1037 c 0,47,48
 854 1037 854 1037 872.5 1028.5 c 128,-1,49
 891 1020 891 1020 905.5 1006 c 128,-1,50
 920 992 920 992 928 973 c 128,-1,51
 936 954 936 954 936 933 c 2,52,-1
 928 221 l 2,53,54
 928 211 928 211 934 209 c 128,-1,55
 940 207 940 207 942 207 c 2,56,-1
 943 207 l 2,57,58
 965 207 965 207 983.5 198.5 c 128,-1,59
 1002 190 1002 190 1016.5 175.5 c 128,-1,60
 1031 161 1031 161 1039 142.5 c 128,-1,61
 1047 124 1047 124 1047 103 c 0,62,63
 1047 81 1047 81 1038.5 62 c 128,-1,64
 1030 43 1030 43 1015.5 29.5 c 128,-1,65
 1001 16 1001 16 982 8.5 c 128,-1,66
 963 1 963 1 942 1 c 2,67,-1
 940 1 l 2,68,69
 885 1 885 1 843.5 24 c 128,-1,70
 802 47 802 47 768 85 c 1,71,72
 718 42 718 42 653 21 c 128,-1,73
 588 0 588 0 513 0 c 0,74,75
 417 0 417 0 340 33.5 c 128,-1,76
 263 67 263 67 209.5 132.5 c 128,-1,77
 156 198 156 198 127 295 c 128,-1,78
 98 392 98 392 98 519 c 0,79,80
 98 654 98 654 129.5 751.5 c 128,-1,81
 161 849 161 849 216 913 c 128,-1,82
 271 977 271 977 347.5 1007.5 c 128,-1,83
 424 1038 424 1038 513 1038 c 0,41,42
663 766 m 1,84,85
 638 797 638 797 600.5 813.5 c 128,-1,86
 563 830 563 830 513 830 c 0,87,88
 405 830 405 830 355.5 754.5 c 128,-1,89
 306 679 306 679 306 519 c 0,90,91
 306 427 306 427 321 367 c 128,-1,92
 336 307 336 307 363 271.5 c 128,-1,93
 390 236 390 236 428.5 221.5 c 128,-1,94
 467 207 467 207 513 207 c 256,95,96
 559 207 559 207 597.5 221.5 c 128,-1,97
 636 236 636 236 663 272 c 128,-1,98
 690 308 690 308 705 367.5 c 128,-1,99
 720 427 720 427 720 519 c 0,100,101
 720 612 720 612 704.5 671 c 128,-1,102
 689 730 689 730 663 766 c 1,84,85
EndSplineSet
EndChar
StartChar: ae
Encoding: 230 230 85
Width: 1641
Flags: W
LayerCount: 2
Back
Fore
SplineSet
351 788 m 0,0,1
 329 777 329 777 306 777 c 0,2,3
 285 777 285 777 266.5 785 c 128,-1,4
 248 793 248 793 233 807.5 c 128,-1,5
 218 822 218 822 209.5 840.5 c 128,-1,6
 201 859 201 859 201 880 c 0,7,8
 201 914 201 914 221 939 c 128,-1,9
 241 964 241 964 273 982 c 128,-1,10
 305 1000 305 1000 343.5 1012 c 128,-1,11
 382 1024 382 1024 420.5 1031 c 128,-1,12
 459 1038 459 1038 492.5 1040.5 c 128,-1,13
 526 1043 526 1043 546 1043 c 0,14,15
 630 1043 630 1043 709.5 1016 c 128,-1,16
 789 989 789 989 851 927 c 1,17,18
 901 980 901 980 974 1009 c 128,-1,19
 1047 1038 1047 1038 1132 1038 c 0,20,21
 1224 1038 1224 1038 1300.5 1005 c 128,-1,22
 1377 972 1377 972 1430.5 906.5 c 128,-1,23
 1484 841 1484 841 1513.5 744 c 128,-1,24
 1543 647 1543 647 1543 519 c 0,25,26
 1543 497 1543 497 1534.5 478.5 c 128,-1,27
 1526 460 1526 460 1512.5 445.5 c 128,-1,28
 1499 431 1499 431 1479.5 423 c 128,-1,29
 1460 415 1460 415 1440 415 c 2,30,-1
 935 415 l 1,31,32
 943 356 943 356 960 316.5 c 128,-1,33
 977 277 977 277 1001.5 252.5 c 128,-1,34
 1026 228 1026 228 1058.5 217.5 c 128,-1,35
 1091 207 1091 207 1132 207 c 0,36,37
 1191 207 1191 207 1224 225 c 128,-1,38
 1257 243 1257 243 1277 269 c 1,39,40
 1290 289 1290 289 1312 300 c 128,-1,41
 1334 311 1334 311 1360 311 c 0,42,43
 1380 311 1380 311 1398.5 303 c 128,-1,44
 1417 295 1417 295 1431.5 281 c 128,-1,45
 1446 267 1446 267 1454.5 248.5 c 128,-1,46
 1463 230 1463 230 1463 208 c 0,47,48
 1463 179 1463 179 1447 152 c 128,-1,49
 1431 125 1431 125 1407 102.5 c 128,-1,50
 1383 80 1383 80 1355.5 62.5 c 128,-1,51
 1328 45 1328 45 1306 35 c 0,52,53
 1280 24 1280 24 1257 17 c 128,-1,54
 1234 10 1234 10 1213.5 6.5 c 128,-1,55
 1193 3 1193 3 1173 1.5 c 128,-1,56
 1153 0 1153 0 1132 0 c 0,57,58
 1036 0 1036 0 960 33 c 128,-1,59
 884 66 884 66 828 136 c 1,60,61
 820 129 820 129 816.5 126 c 128,-1,62
 813 123 813 123 809 120.5 c 128,-1,63
 805 118 805 118 797.5 113.5 c 128,-1,64
 790 109 790 109 774 98 c 1,65,66
 739 78 739 78 694 59.5 c 128,-1,67
 649 41 649 41 602.5 28 c 128,-1,68
 556 15 556 15 514 7.5 c 128,-1,69
 472 0 472 0 441 0 c 2,70,-1
 430 0 l 2,71,72
 369 0 369 0 309.5 21.5 c 128,-1,73
 250 43 250 43 203 84 c 128,-1,74
 156 125 156 125 127 183.5 c 128,-1,75
 98 242 98 242 98 316 c 2,76,-1
 98 328 l 2,77,78
 98 384 98 384 122 439.5 c 128,-1,79
 146 495 146 495 192 539 c 128,-1,80
 238 583 238 583 303.5 610 c 128,-1,81
 369 637 369 637 451 637 c 0,82,83
 484 637 484 637 518.5 630.5 c 128,-1,84
 553 624 553 624 588.5 612.5 c 128,-1,85
 624 601 624 601 658 587 c 128,-1,86
 692 573 692 573 720 557 c 1,87,-1
 720 726 l 2,88,89
 720 766 720 766 698.5 788 c 128,-1,90
 677 810 677 810 648.5 820 c 128,-1,91
 620 830 620 830 590.5 832 c 128,-1,92
 561 834 561 834 546 834 c 0,93,94
 490 834 490 834 443 821.5 c 128,-1,95
 396 809 396 809 351 788 c 0,0,1
667 275 m 1,96,97
 681 282 681 282 695 293.5 c 128,-1,98
 709 305 709 305 715 314 c 1,99,100
 684 337 684 337 650.5 357.5 c 128,-1,101
 617 378 617 378 583 395 c 1,102,103
 553 407 553 407 533 414 c 128,-1,104
 513 421 513 421 499 424.5 c 128,-1,105
 485 428 485 428 474.5 429 c 128,-1,106
 464 430 464 430 453 430 c 0,107,108
 429 430 429 430 403 423.5 c 128,-1,109
 377 417 377 417 355.5 403.5 c 128,-1,110
 334 390 334 390 320 371.5 c 128,-1,111
 306 353 306 353 306 328 c 2,112,-1
 306 316 l 1,113,114
 311 266 311 266 342.5 236 c 128,-1,115
 374 206 374 206 430 206 c 0,116,117
 431 206 431 206 433 206.5 c 128,-1,118
 435 207 435 207 437 207 c 2,119,-1
 442 207 l 1,120,121
 466 208 466 208 495 214 c 128,-1,122
 524 220 524 220 554 229 c 128,-1,123
 584 238 584 238 613.5 249.5 c 128,-1,124
 643 261 643 261 667 275 c 1,96,97
986 767 m 1,125,126
 966 741 966 741 952.5 701.5 c 128,-1,127
 939 662 939 662 935 622 c 1,128,-1
 1329 622 l 1,129,130
 1323 667 1323 667 1309.5 705 c 128,-1,131
 1296 743 1296 743 1273 771 c 128,-1,132
 1250 799 1250 799 1215.5 814.5 c 128,-1,133
 1181 830 1181 830 1132 830 c 0,134,135
 1085 830 1085 830 1046.5 814 c 128,-1,136
 1008 798 1008 798 986 767 c 1,125,126
EndSplineSet
EndChar
StartChar: ccedilla
Encoding: 231 231 120
Width: 960
Flags: W
LayerCount: 2
Back
Fore
SplineSet
376 -311 m 0,0,1
 376 -334 376 -334 385 -353 c 128,-1,2
 394 -372 394 -372 409 -385.5 c 128,-1,3
 424 -399 424 -399 442.5 -406.5 c 128,-1,4
 461 -414 461 -414 480 -414 c 0,5,6
 498 -414 498 -414 517 -406.5 c 128,-1,7
 536 -399 536 -399 550.5 -385.5 c 128,-1,8
 565 -372 565 -372 574.5 -353 c 128,-1,9
 584 -334 584 -334 584 -311 c 0,10,11
 584 -285 584 -285 574 -265.5 c 128,-1,12
 564 -246 564 -246 549 -232.5 c 128,-1,13
 534 -219 534 -219 515.5 -212.5 c 128,-1,14
 497 -206 497 -206 480 -206 c 0,15,16
 459 -206 459 -206 440 -198 c 128,-1,17
 421 -190 421 -190 407 -176 c 128,-1,18
 393 -162 393 -162 384.5 -143 c 128,-1,19
 376 -124 376 -124 376 -103 c 2,20,-1
 376 20 l 1,21,22
 243 61 243 61 170.5 188.5 c 128,-1,23
 98 316 98 316 98 519 c 0,24,25
 98 654 98 654 129.5 751.5 c 128,-1,26
 161 849 161 849 216 913 c 128,-1,27
 271 977 271 977 347.5 1007.5 c 128,-1,28
 424 1038 424 1038 513 1038 c 0,29,30
 620 1038 620 1038 703 994.5 c 128,-1,31
 786 951 786 951 839 875 c 0,32,33
 857 848 857 848 857 817 c 0,34,35
 857 794 857 794 848 775 c 128,-1,36
 839 756 839 756 825 742 c 128,-1,37
 811 728 811 728 792.5 720 c 128,-1,38
 774 712 774 712 756 712 c 0,39,40
 699 712 699 712 667 759 c 0,41,42
 646 790 646 790 608 810 c 128,-1,43
 570 830 570 830 513 830 c 0,44,45
 405 830 405 830 355.5 754.5 c 128,-1,46
 306 679 306 679 306 519 c 0,47,48
 306 427 306 427 321 367 c 128,-1,49
 336 307 336 307 363 271.5 c 128,-1,50
 390 236 390 236 428.5 221.5 c 128,-1,51
 467 207 467 207 513 207 c 0,52,53
 560 207 560 207 598 220.5 c 128,-1,54
 636 234 636 234 666 276 c 0,55,56
 682 297 682 297 703.5 308.5 c 128,-1,57
 725 320 725 320 754 320 c 0,58,59
 772 320 772 320 790.5 312.5 c 128,-1,60
 809 305 809 305 823 290.5 c 128,-1,61
 837 276 837 276 845.5 257.5 c 128,-1,62
 854 239 854 239 854 217 c 0,63,64
 854 185 854 185 837 157 c 128,-1,65
 820 129 820 129 794.5 106 c 128,-1,66
 769 83 769 83 742 66 c 128,-1,67
 715 49 715 49 696 39 c 0,68,69
 675 28 675 28 653 21.5 c 128,-1,70
 631 15 631 15 607 10 c 2,71,-1
 584 5 l 1,72,-1
 584 -17 l 1,73,74
 635 -33 635 -33 673.5 -64 c 128,-1,75
 712 -95 712 -95 738.5 -134.5 c 128,-1,76
 765 -174 765 -174 778 -219.5 c 128,-1,77
 791 -265 791 -265 791 -311 c 0,78,79
 791 -366 791 -366 770.5 -421.5 c 128,-1,80
 750 -477 750 -477 710 -521 c 128,-1,81
 670 -565 670 -565 612 -593 c 128,-1,82
 554 -621 554 -621 480 -621 c 0,83,84
 416 -621 416 -621 359.5 -597 c 128,-1,85
 303 -573 303 -573 260.5 -531 c 128,-1,86
 218 -489 218 -489 193.5 -432 c 128,-1,87
 169 -375 169 -375 169 -311 c 0,88,89
 169 -290 169 -290 177 -271 c 128,-1,90
 185 -252 185 -252 199 -237.5 c 128,-1,91
 213 -223 213 -223 232 -214.5 c 128,-1,92
 251 -206 251 -206 272 -206 c 0,93,94
 294 -206 294 -206 312.5 -214.5 c 128,-1,95
 331 -223 331 -223 345.5 -237.5 c 128,-1,96
 360 -252 360 -252 368 -270.5 c 128,-1,97
 376 -289 376 -289 376 -311 c 0,0,1
EndSplineSet
EndChar
StartChar: igrave
Encoding: 236 236 118
Width: 404
Flags: W
LayerCount: 2
Back
Fore
SplineSet
98 934 m 2,0,1
 98 954 98 954 106 973 c 128,-1,2
 114 992 114 992 128 1006 c 128,-1,3
 142 1020 142 1020 161 1029 c 128,-1,4
 180 1038 180 1038 201 1038 c 0,5,6
 223 1038 223 1038 242 1029.5 c 128,-1,7
 261 1021 261 1021 275 1006.5 c 128,-1,8
 289 992 289 992 297.5 973 c 128,-1,9
 306 954 306 954 306 934 c 2,10,-1
 306 104 l 2,11,12
 306 83 306 83 297.5 64 c 128,-1,13
 289 45 289 45 274.5 31 c 128,-1,14
 260 17 260 17 241.5 8.5 c 128,-1,15
 223 0 223 0 201 0 c 0,16,17
 180 0 180 0 161 8.5 c 128,-1,18
 142 17 142 17 128 31 c 128,-1,19
 114 45 114 45 106 64 c 128,-1,20
 98 83 98 83 98 104 c 2,21,-1
 98 519 l 1,22,-1
 98 934 l 2,0,1
26 1483 m 1,23,24
 -5 1510 -5 1510 -5 1557 c 0,25,26
 -5 1577 -5 1577 3 1596 c 128,-1,27
 11 1615 11 1615 24.5 1629 c 128,-1,28
 38 1643 38 1643 57 1651.5 c 128,-1,29
 76 1660 76 1660 98 1660 c 0,30,31
 121 1660 121 1660 138.5 1652 c 128,-1,32
 156 1644 156 1644 172 1629 c 2,33,-1
 379 1422 l 2,34,35
 410 1392 410 1392 410 1348 c 0,36,37
 410 1326 410 1326 401.5 1307 c 128,-1,38
 393 1288 393 1288 379 1274.5 c 128,-1,39
 365 1261 365 1261 346 1253 c 128,-1,40
 327 1245 327 1245 307 1245 c 0,41,42
 260 1245 260 1245 233 1276 c 1,43,-1
 129 1379 l 1,44,-1
 26 1483 l 1,23,24
EndSplineSet
EndChar
StartChar: iacute
Encoding: 237 237 119
Width: 404
Flags: W
LayerCount: 2
Back
Fore
SplineSet
98 934 m 2,0,1
 98 954 98 954 106 973 c 128,-1,2
 114 992 114 992 128 1006 c 128,-1,3
 142 1020 142 1020 161 1029 c 128,-1,4
 180 1038 180 1038 201 1038 c 0,5,6
 223 1038 223 1038 242 1029.5 c 128,-1,7
 261 1021 261 1021 275 1006.5 c 128,-1,8
 289 992 289 992 297.5 973 c 128,-1,9
 306 954 306 954 306 934 c 2,10,-1
 306 104 l 2,11,12
 306 83 306 83 297.5 64 c 128,-1,13
 289 45 289 45 274.5 31 c 128,-1,14
 260 17 260 17 241.5 8.5 c 128,-1,15
 223 0 223 0 201 0 c 0,16,17
 180 0 180 0 161 8.5 c 128,-1,18
 142 17 142 17 128 31 c 128,-1,19
 114 45 114 45 106 64 c 128,-1,20
 98 83 98 83 98 104 c 2,21,-1
 98 519 l 1,22,-1
 98 934 l 2,0,1
172 1276 m 2,23,24
 142 1245 142 1245 98 1245 c 256,25,26
 54 1245 54 1245 24.5 1274.5 c 128,-1,27
 -5 1304 -5 1304 -5 1348 c 256,28,29
 -5 1392 -5 1392 26 1422 c 2,30,-1
 233 1629 l 1,31,32
 260 1660 260 1660 307 1660 c 0,33,34
 327 1660 327 1660 346.5 1651.5 c 128,-1,35
 366 1643 366 1643 379.5 1629.5 c 128,-1,36
 393 1616 393 1616 401.5 1596.5 c 128,-1,37
 410 1577 410 1577 410 1557 c 0,38,39
 410 1510 410 1510 379 1483 c 1,40,-1
 276 1379 l 1,41,-1
 172 1276 l 2,23,24
EndSplineSet
EndChar
StartChar: idieresis
Encoding: 239 239 108
Width: 404
Flags: W
LayerCount: 2
Back
Fore
SplineSet
98 934 m 2,0,1
 98 954 98 954 106 973 c 128,-1,2
 114 992 114 992 128 1006 c 128,-1,3
 142 1020 142 1020 161 1029 c 128,-1,4
 180 1038 180 1038 201 1038 c 0,5,6
 223 1038 223 1038 242 1029.5 c 128,-1,7
 261 1021 261 1021 275 1006.5 c 128,-1,8
 289 992 289 992 297.5 973 c 128,-1,9
 306 954 306 954 306 934 c 2,10,-1
 306 104 l 2,11,12
 306 83 306 83 297.5 64 c 128,-1,13
 289 45 289 45 274.5 31 c 128,-1,14
 260 17 260 17 241.5 8.5 c 128,-1,15
 223 0 223 0 201 0 c 0,16,17
 180 0 180 0 161 8.5 c 128,-1,18
 142 17 142 17 128 31 c 128,-1,19
 114 45 114 45 106 64 c 128,-1,20
 98 83 98 83 98 104 c 2,21,-1
 98 519 l 1,22,-1
 98 934 l 2,0,1
-5 1452 m 0,23,24
 98 1452 98 1452 98 1348 c 0,25,26
 98 1245 98 1245 -5 1245 c 0,27,28
 -109 1245 -109 1245 -109 1348 c 0,29,30
 -109 1452 -109 1452 -5 1452 c 0,23,24
410 1452 m 0,31,32
 513 1452 513 1452 513 1348 c 0,33,34
 513 1245 513 1245 410 1245 c 0,35,36
 306 1245 306 1245 306 1348 c 0,37,38
 306 1452 306 1452 410 1452 c 0,31,32
EndSplineSet
EndChar
StartChar: thorn
Encoding: 254 254 167
Width: 1026
Flags: W
LayerCount: 2
Back
Fore
SplineSet
98 -311 m 2,0,-1
 98 1348 l 2,1,2
 98 1369 98 1369 106 1388 c 128,-1,3
 114 1407 114 1407 128 1421.5 c 128,-1,4
 142 1436 142 1436 161 1444 c 128,-1,5
 180 1452 180 1452 201 1452 c 0,6,7
 223 1452 223 1452 241.5 1444 c 128,-1,8
 260 1436 260 1436 274.5 1421.5 c 128,-1,9
 289 1407 289 1407 297.5 1388.5 c 128,-1,10
 306 1370 306 1370 306 1348 c 2,11,-1
 306 987 l 1,12,13
 392 1038 392 1038 513 1038 c 0,14,15
 604 1038 604 1038 681 1006 c 128,-1,16
 758 974 758 974 812.5 909 c 128,-1,17
 867 844 867 844 897.5 747 c 128,-1,18
 928 650 928 650 928 519 c 0,19,20
 928 396 928 396 900 299.5 c 128,-1,21
 872 203 872 203 819 137 c 128,-1,22
 766 71 766 71 688.5 35.5 c 128,-1,23
 611 0 611 0 513 0 c 0,24,25
 451 0 451 0 402.5 13 c 128,-1,26
 354 26 354 26 305 51 c 1,27,-1
 305 -311 l 2,28,29
 305 -333 305 -333 296.5 -351.5 c 128,-1,30
 288 -370 288 -370 273.5 -384 c 128,-1,31
 259 -398 259 -398 240.5 -406 c 128,-1,32
 222 -414 222 -414 201 -414 c 0,33,34
 181 -414 181 -414 161.5 -405.5 c 128,-1,35
 142 -397 142 -397 128.5 -383.5 c 128,-1,36
 115 -370 115 -370 106.5 -350.5 c 128,-1,37
 98 -331 98 -331 98 -311 c 2,0,-1
662 766 m 0,38,39
 637 798 637 798 599 814 c 128,-1,40
 561 830 561 830 513 830 c 0,41,42
 451 830 451 830 411 807 c 128,-1,43
 371 784 371 784 347.5 743 c 128,-1,44
 324 702 324 702 315 645 c 128,-1,45
 306 588 306 588 306 519 c 0,46,47
 306 427 306 427 320.5 367 c 128,-1,48
 335 307 335 307 362.5 271.5 c 128,-1,49
 390 236 390 236 428.5 221.5 c 128,-1,50
 467 207 467 207 513 207 c 0,51,52
 558 207 558 207 596.5 222 c 128,-1,53
 635 237 635 237 662.5 273.5 c 128,-1,54
 690 310 690 310 705 369 c 128,-1,55
 720 428 720 428 720 519 c 0,56,57
 720 600 720 600 706 663 c 128,-1,58
 692 726 692 726 662 766 c 0,38,39
EndSplineSet
EndChar
StartChar: OE
Encoding: 338 338 183
Width: 1895
Flags: W
LayerCount: 2
Back
Fore
SplineSet
1693 1452 m 2,0,1
 1715 1452 1715 1452 1733.5 1444 c 128,-1,2
 1752 1436 1752 1436 1766.5 1421.5 c 128,-1,3
 1781 1407 1781 1407 1789 1388.5 c 128,-1,4
 1797 1370 1797 1370 1797 1348 c 0,5,6
 1797 1328 1797 1328 1789.5 1309 c 128,-1,7
 1782 1290 1782 1290 1767.5 1276 c 128,-1,8
 1753 1262 1753 1262 1734 1253.5 c 128,-1,9
 1715 1245 1715 1245 1693 1245 c 2,10,-1
 1081 1245 l 1,11,-1
 1081 830 l 1,12,-1
 1486 830 l 2,13,14
 1506 830 1506 830 1524.5 823 c 128,-1,15
 1543 816 1543 816 1557 802 c 128,-1,16
 1571 788 1571 788 1580 769 c 128,-1,17
 1589 750 1589 750 1589 726 c 0,18,19
 1589 703 1589 703 1580 683.5 c 128,-1,20
 1571 664 1571 664 1557 650.5 c 128,-1,21
 1543 637 1543 637 1524.5 629.5 c 128,-1,22
 1506 622 1506 622 1486 622 c 2,23,-1
 1081 622 l 1,24,-1
 1081 207 l 1,25,-1
 1693 207 l 2,26,27
 1714 207 1714 207 1733 199 c 128,-1,28
 1752 191 1752 191 1766.5 177 c 128,-1,29
 1781 163 1781 163 1789 144 c 128,-1,30
 1797 125 1797 125 1797 104 c 256,31,32
 1797 83 1797 83 1789 64 c 128,-1,33
 1781 45 1781 45 1766.5 31 c 128,-1,34
 1752 17 1752 17 1733.5 8.5 c 128,-1,35
 1715 0 1715 0 1693 0 c 2,36,-1
 977 0 l 2,37,38
 955 0 955 0 936.5 8.5 c 128,-1,39
 918 17 918 17 903.5 31 c 128,-1,40
 889 45 889 45 882 64 c 0,41,42
 880 67 880 67 879 70 c 1,43,44
 762 0 762 0 617 0 c 0,45,46
 512 0 512 0 426 29 c 128,-1,47
 340 58 340 58 276 118 c 128,-1,48
 212 178 212 178 170.5 271 c 128,-1,49
 129 364 129 364 111 490 c 0,50,51
 103 549 103 549 100.5 608 c 128,-1,52
 98 667 98 667 98 726 c 0,53,54
 98 824 98 824 107.5 915.5 c 128,-1,55
 117 1007 117 1007 140 1087.5 c 128,-1,56
 163 1168 163 1168 201.5 1235.5 c 128,-1,57
 240 1303 240 1303 297.5 1351 c 128,-1,58
 355 1399 355 1399 434 1425.5 c 128,-1,59
 513 1452 513 1452 617 1452 c 0,60,61
 690 1452 690 1452 757 1433 c 1,62,63
 823 1413 823 1413 879 1380 c 1,64,-1
 882 1388 l 2,65,66
 889 1407 889 1407 903.5 1421.5 c 128,-1,67
 918 1436 918 1436 936.5 1444 c 128,-1,68
 955 1452 955 1452 977 1452 c 2,69,-1
 1693 1452 l 2,0,1
864 1119 m 0,70,71
 851 1139 851 1139 833 1157 c 1,72,73
 787 1198 787 1198 733 1221.5 c 128,-1,74
 679 1245 679 1245 617 1245 c 0,75,76
 523 1245 523 1245 462.5 1211.5 c 128,-1,77
 402 1178 402 1178 367 1112.5 c 128,-1,78
 332 1047 332 1047 319 950 c 128,-1,79
 306 853 306 853 306 726 c 0,80,81
 306 584 306 584 322 485 c 128,-1,82
 338 386 338 386 375 324 c 128,-1,83
 412 262 412 262 471.5 234.5 c 128,-1,84
 531 207 531 207 617 207 c 0,85,86
 663 207 663 207 704 220 c 128,-1,87
 745 233 745 233 779.5 254 c 128,-1,88
 814 275 814 275 840 304 c 1,89,90
 859 322 859 322 874 343 c 1,91,-1
 874 1106 l 1,92,93
 869 1112 869 1112 864 1119 c 0,70,71
EndSplineSet
EndChar
StartChar: scaron
Encoding: 353 353 185
Width: 942
Flags: W
LayerCount: 2
Back
Fore
SplineSet
817 908 m 1,0,1
 839 878 839 878 839 846 c 0,2,3
 839 824 839 824 831.5 804.5 c 128,-1,4
 824 785 824 785 809.5 770.5 c 128,-1,5
 795 756 795 756 776.5 747.5 c 128,-1,6
 758 739 758 739 737 739 c 0,7,8
 687 739 687 739 655 778 c 0,9,10
 644 792 644 792 622.5 802.5 c 128,-1,11
 601 813 601 813 575.5 819 c 128,-1,12
 550 825 550 825 524 827.5 c 128,-1,13
 498 830 498 830 477 830 c 0,14,15
 435 829 435 829 403.5 820 c 128,-1,16
 372 811 372 811 351 796 c 128,-1,17
 330 781 330 781 320 762.5 c 128,-1,18
 310 744 310 744 310 725 c 0,19,20
 310 705 310 705 322.5 686 c 128,-1,21
 335 667 335 667 358 653.5 c 128,-1,22
 381 640 381 640 412 631.5 c 128,-1,23
 443 623 443 623 481 622 c 1,24,25
 553 617 553 617 618 595.5 c 128,-1,26
 683 574 683 574 731.5 536.5 c 128,-1,27
 780 499 780 499 808.5 446.5 c 128,-1,28
 837 394 837 394 837 328 c 0,29,30
 837 256 837 256 807 195.5 c 128,-1,31
 777 135 777 135 725.5 91.5 c 128,-1,32
 674 48 674 48 606.5 24 c 128,-1,33
 539 0 539 0 464 0 c 0,34,35
 397 0 397 0 332 19 c 128,-1,36
 267 38 267 38 216.5 69.5 c 128,-1,37
 166 101 166 101 134.5 141 c 128,-1,38
 103 181 103 181 103 221 c 0,39,40
 103 241 103 241 111 259.5 c 128,-1,41
 119 278 119 278 132 292.5 c 128,-1,42
 145 307 145 307 164 315.5 c 128,-1,43
 183 324 183 324 205 324 c 0,44,45
 231 324 231 324 254.5 313 c 128,-1,46
 278 302 278 302 293 279 c 0,47,48
 296 273 296 273 307.5 261.5 c 128,-1,49
 319 250 319 250 340 237 c 128,-1,50
 361 224 361 224 390.5 214.5 c 128,-1,51
 420 205 420 205 459 205 c 0,52,53
 496 205 496 205 527.5 215 c 128,-1,54
 559 225 559 225 582 241 c 128,-1,55
 605 257 605 257 618 278.5 c 128,-1,56
 631 300 631 300 631 323 c 0,57,58
 631 359 631 359 588.5 385 c 128,-1,59
 546 411 546 411 468 416 c 0,60,61
 387 421 387 421 320 445.5 c 128,-1,62
 253 470 253 470 204.5 509.5 c 128,-1,63
 156 549 156 549 129.5 602.5 c 128,-1,64
 103 656 103 656 103 721 c 0,65,66
 103 782 103 782 129 839 c 128,-1,67
 155 896 155 896 205 940 c 128,-1,68
 255 984 255 984 326.5 1010.5 c 128,-1,69
 398 1037 398 1037 489 1037 c 0,70,71
 522 1037 522 1037 564.5 1032 c 128,-1,72
 607 1027 607 1027 652 1013 c 128,-1,73
 697 999 697 999 740 974 c 128,-1,74
 783 949 783 949 817 908 c 1,0,1
563 1435 m 1,75,76
 593 1464 593 1464 637 1464 c 0,77,78
 659 1464 659 1464 678 1456 c 128,-1,79
 697 1448 697 1448 710.5 1433.5 c 128,-1,80
 724 1419 724 1419 732 1400.5 c 128,-1,81
 740 1382 740 1382 740 1361 c 0,82,83
 740 1318 740 1318 710 1287 c 2,84,-1
 561 1140 l 1,85,86
 534 1109 534 1109 488 1109 c 0,87,88
 445 1109 445 1109 415 1140 c 2,89,-1
 267 1287 l 2,90,91
 237 1318 237 1318 237 1361 c 0,92,93
 237 1383 237 1383 245.5 1401.5 c 128,-1,94
 254 1420 254 1420 267.5 1434.5 c 128,-1,95
 281 1449 281 1449 300 1456.5 c 128,-1,96
 319 1464 319 1464 340 1464 c 0,97,98
 385 1464 385 1464 414 1435 c 2,99,-1
 488 1360 l 1,100,-1
 526 1397 l 1,101,-1
 563 1435 l 1,75,76
EndSplineSet
EndChar
StartChar: Zcaron
Encoding: 381 381 184
Width: 1242
Flags: W
LayerCount: 2
Back
Fore
SplineSet
209 1245 m 2,0,1
 187 1245 187 1245 168 1253.5 c 128,-1,2
 149 1262 149 1262 135.5 1276 c 128,-1,3
 122 1290 122 1290 114 1309 c 128,-1,4
 106 1328 106 1328 106 1348 c 0,5,6
 106 1369 106 1369 114 1388 c 128,-1,7
 122 1407 122 1407 136 1421.5 c 128,-1,8
 150 1436 150 1436 169 1444 c 128,-1,9
 188 1452 188 1452 209 1452 c 2,10,-1
 1040 1452 l 2,11,12
 1061 1452 1061 1452 1080 1444 c 128,-1,13
 1099 1436 1099 1436 1113 1421.5 c 128,-1,14
 1127 1407 1127 1407 1135.5 1388.5 c 128,-1,15
 1144 1370 1144 1370 1144 1348 c 0,16,17
 1144 1335 1144 1335 1139.5 1319 c 128,-1,18
 1135 1303 1135 1303 1125 1290 c 1,19,-1
 404 207 l 1,20,-1
 1040 207 l 2,21,22
 1060 207 1060 207 1079.5 199 c 128,-1,23
 1099 191 1099 191 1113 177 c 128,-1,24
 1127 163 1127 163 1135.5 144 c 128,-1,25
 1144 125 1144 125 1144 104 c 256,26,27
 1144 83 1144 83 1135.5 64 c 128,-1,28
 1127 45 1127 45 1113 31 c 128,-1,29
 1099 17 1099 17 1080 8.5 c 128,-1,30
 1061 0 1061 0 1040 0 c 2,31,-1
 210 0 l 2,32,33
 187 0 187 0 167.5 9 c 128,-1,34
 148 18 148 18 134.5 32.5 c 128,-1,35
 121 47 121 47 113 66 c 128,-1,36
 105 85 105 85 105 107 c 0,37,38
 105 135 105 135 123 161 c 2,39,-1
 846 1245 l 1,40,-1
 528 1245 l 1,41,-1
 209 1245 l 2,0,1
703 1840 m 2,42,43
 732 1869 732 1869 776 1869 c 0,44,45
 799 1869 799 1869 817.5 1860.5 c 128,-1,46
 836 1852 836 1852 850 1838 c 128,-1,47
 864 1824 864 1824 872 1805.5 c 128,-1,48
 880 1787 880 1787 880 1766 c 0,49,50
 880 1723 880 1723 849 1692 c 2,51,-1
 701 1545 l 1,52,53
 673 1514 673 1514 628 1514 c 0,54,55
 585 1514 585 1514 554 1545 c 2,56,-1
 407 1692 l 2,57,58
 376 1723 376 1723 376 1766 c 0,59,60
 376 1788 376 1788 384.5 1806.5 c 128,-1,61
 393 1825 393 1825 407 1839 c 128,-1,62
 421 1853 421 1853 440 1861 c 128,-1,63
 459 1869 459 1869 480 1869 c 0,64,65
 525 1869 525 1869 553 1840 c 2,66,-1
 628 1765 l 1,67,-1
 665 1802 l 1,68,-1
 703 1840 l 2,42,43
EndSplineSet
EndChar
StartChar: circumflex
Encoding: 710 710 131
Width: 700
Flags: W
LayerCount: 2
Back
Fore
SplineSet
275 1127 m 2,0,1
 246 1098 246 1098 201 1098 c 0,2,3
 179 1098 179 1098 160.5 1106 c 128,-1,4
 142 1114 142 1114 128 1128.5 c 128,-1,5
 114 1143 114 1143 106 1161.5 c 128,-1,6
 98 1180 98 1180 98 1201 c 0,7,8
 98 1244 98 1244 129 1275 c 2,9,-1
 277 1422 l 1,10,11
 305 1452 305 1452 350 1452 c 0,12,13
 393 1452 393 1452 424 1422 c 2,14,-1
 571 1275 l 2,15,16
 601 1244 601 1244 601 1201 c 0,17,18
 601 1179 601 1179 593 1160.5 c 128,-1,19
 585 1142 585 1142 571 1127.5 c 128,-1,20
 557 1113 557 1113 538 1105.5 c 128,-1,21
 519 1098 519 1098 498 1098 c 0,22,23
 453 1098 453 1098 425 1127 c 2,24,-1
 350 1202 l 1,25,-1
 313 1165 l 1,26,-1
 275 1127 l 2,0,1
EndSplineSet
EndChar
StartChar: tilde
Encoding: 732 732 9
Width: 1035
Flags: W
LayerCount: 2
Back
Fore
SplineSet
287 1227 m 1,0,1
 258 1187 258 1187 206 1187 c 0,2,3
 184 1187 184 1187 164.5 1195.5 c 128,-1,4
 145 1204 145 1204 131.5 1218 c 128,-1,5
 118 1232 118 1232 110 1251 c 128,-1,6
 102 1270 102 1270 102 1290 c 0,7,8
 102 1318 102 1318 117 1343.5 c 128,-1,9
 132 1369 132 1369 154 1389.5 c 128,-1,10
 176 1410 176 1410 201 1425.5 c 128,-1,11
 226 1441 226 1441 246 1448 c 0,12,13
 262 1453 262 1453 279.5 1455.5 c 128,-1,14
 297 1458 297 1458 315 1458 c 0,15,16
 346 1458 346 1458 373 1453 c 128,-1,17
 400 1448 400 1448 430 1436 c 128,-1,18
 460 1424 460 1424 495.5 1404.5 c 128,-1,19
 531 1385 531 1385 577 1355 c 1,20,-1
 578 1354 l 1,21,22
 631 1320 631 1320 661.5 1305 c 128,-1,23
 692 1290 692 1290 711 1290 c 0,24,25
 731 1290 731 1290 744 1306 c 0,26,27
 760 1326 760 1326 781.5 1337 c 128,-1,28
 803 1348 803 1348 828 1348 c 0,29,30
 847 1348 847 1348 865.5 1341 c 128,-1,31
 884 1334 884 1334 899 1320 c 128,-1,32
 914 1306 914 1306 923 1287 c 128,-1,33
 932 1268 932 1268 932 1245 c 0,34,35
 932 1211 932 1211 911 1183 c 0,36,37
 826 1068 826 1068 722 1068 c 0,38,39
 690 1068 690 1068 658 1078 c 128,-1,40
 626 1088 626 1088 594 1103 c 128,-1,41
 562 1118 562 1118 530 1138.5 c 128,-1,42
 498 1159 498 1159 466 1179 c 1,43,-1
 465 1180 l 1,44,45
 448 1191 448 1191 427.5 1203.5 c 128,-1,46
 407 1216 407 1216 387.5 1226.5 c 128,-1,47
 368 1237 368 1237 351 1244 c 128,-1,48
 334 1251 334 1251 325 1251 c 0,49,50
 306 1251 306 1251 287 1227 c 1,0,1
EndSplineSet
EndChar
StartChar: emdash
Encoding: 8212 8212 188
Width: 1304
Flags: W
LayerCount: 2
Back
Fore
SplineSet
201 312 m 2,0,1
 181 312 181 312 161.5 320 c 128,-1,2
 142 328 142 328 128.5 342 c 128,-1,3
 115 356 115 356 106.5 375 c 128,-1,4
 98 394 98 394 98 415 c 0,5,6
 98 435 98 435 106 454.5 c 128,-1,7
 114 474 114 474 128 488 c 128,-1,8
 142 502 142 502 161 510.5 c 128,-1,9
 180 519 180 519 201 519 c 2,10,-1
 1077 519 l 2,11,12
 1098 519 1098 519 1117 510.5 c 128,-1,13
 1136 502 1136 502 1150 488 c 128,-1,14
 1164 474 1164 474 1172 454.5 c 128,-1,15
 1180 435 1180 435 1180 415 c 0,16,17
 1180 394 1180 394 1172 375 c 128,-1,18
 1164 356 1164 356 1150 342 c 128,-1,19
 1136 328 1136 328 1117 320 c 128,-1,20
 1098 312 1098 312 1077 312 c 2,21,-1
 201 312 l 2,0,1
EndSplineSet
EndChar
StartChar: quoteright
Encoding: 8217 8217 164
Width: 462
Flags: W
LayerCount: 2
Back
Fore
SplineSet
155 1346 m 1,0,1
 154 1367 154 1367 161.5 1386 c 128,-1,2
 169 1405 169 1405 182.5 1420 c 128,-1,3
 196 1435 196 1435 215 1443 c 128,-1,4
 234 1451 234 1451 257 1451 c 0,5,6
 278 1451 278 1451 296 1443 c 128,-1,7
 314 1435 314 1435 328.5 1421 c 128,-1,8
 343 1407 343 1407 351.5 1389 c 128,-1,9
 360 1371 360 1371 360 1351 c 2,10,-1
 365 1172 l 1,11,-1
 365 1166 l 2,12,13
 365 1122 365 1122 339 1078.5 c 128,-1,14
 313 1035 313 1035 265 1008 c 1,15,16
 239 991 239 991 210 991 c 0,17,18
 188 991 188 991 168.5 999.5 c 128,-1,19
 149 1008 149 1008 135 1023 c 128,-1,20
 121 1038 121 1038 113 1056.5 c 128,-1,21
 105 1075 105 1075 105 1094 c 0,22,23
 105 1122 105 1122 118.5 1144.5 c 128,-1,24
 132 1167 132 1167 154 1182 c 1,25,-1
 155 1183 l 1,26,27
 157 1183 157 1183 157 1185 c 2,28,-1
 155 1266 l 1,29,-1
 155 1346 l 1,0,1
EndSplineSet
EndChar
StartChar: dagger
Encoding: 8224 8224 198
Width: 1093
Flags: W
LayerCount: 2
Back
Fore
SplineSet
193 885 m 2,0,1
 171 885 171 885 152.5 893.5 c 128,-1,2
 134 902 134 902 119.5 916.5 c 128,-1,3
 105 931 105 931 97 949.5 c 128,-1,4
 89 968 89 968 89 990 c 0,5,6
 89 1010 89 1010 97 1029 c 128,-1,7
 105 1048 105 1048 119 1062 c 128,-1,8
 133 1076 133 1076 151.5 1084.5 c 128,-1,9
 170 1093 170 1093 193 1093 c 2,10,-1
 415 1093 l 1,11,-1
 415 1348 l 2,12,13
 415 1369 415 1369 422.5 1388 c 128,-1,14
 430 1407 430 1407 444.5 1421.5 c 128,-1,15
 459 1436 459 1436 477.5 1444 c 128,-1,16
 496 1452 496 1452 518 1452 c 256,17,18
 540 1452 540 1452 558.5 1444 c 128,-1,19
 577 1436 577 1436 591 1421.5 c 128,-1,20
 605 1407 605 1407 613.5 1388.5 c 128,-1,21
 622 1370 622 1370 622 1348 c 2,22,-1
 622 1093 l 1,23,-1
 887 1093 l 2,24,25
 908 1093 908 1093 927 1084.5 c 128,-1,26
 946 1076 946 1076 960 1062.5 c 128,-1,27
 974 1049 974 1049 982.5 1029.5 c 128,-1,28
 991 1010 991 1010 991 990 c 0,29,30
 991 968 991 968 982.5 949.5 c 128,-1,31
 974 931 974 931 960 916.5 c 128,-1,32
 946 902 946 902 927 893.5 c 128,-1,33
 908 885 908 885 887 885 c 2,34,-1
 622 885 l 1,35,-1
 622 104 l 2,36,37
 622 83 622 83 613.5 64 c 128,-1,38
 605 45 605 45 591 31 c 128,-1,39
 577 17 577 17 558.5 8.5 c 128,-1,40
 540 0 540 0 518 0 c 256,41,42
 496 0 496 0 477.5 8.5 c 128,-1,43
 459 17 459 17 444.5 31 c 128,-1,44
 430 45 430 45 422.5 64 c 128,-1,45
 415 83 415 83 415 104 c 2,46,-1
 415 885 l 1,47,-1
 193 885 l 2,0,1
EndSplineSet
EndChar
StartChar: Euro
Encoding: 8364 8364 170
Width: 1311
Flags: W
LayerCount: 2
Back
Fore
SplineSet
194 412 m 2,0,1
 171 412 171 412 152.5 420 c 128,-1,2
 134 428 134 428 120 442.5 c 128,-1,3
 106 457 106 457 98 475.5 c 128,-1,4
 90 494 90 494 90 515 c 256,5,6
 90 536 90 536 98 555 c 128,-1,7
 106 574 106 574 120.5 588 c 128,-1,8
 135 602 135 602 153.5 610.5 c 128,-1,9
 172 619 172 619 194 619 c 2,10,-1
 225 619 l 1,11,12
 223 672 223 672 223 726 c 0,13,14
 223 776 223 776 225 825 c 1,15,-1
 194 825 l 2,16,17
 172 825 172 825 153.5 833.5 c 128,-1,18
 135 842 135 842 120.5 856.5 c 128,-1,19
 106 871 106 871 98 889.5 c 128,-1,20
 90 908 90 908 90 930 c 0,21,22
 90 950 90 950 98 969 c 128,-1,23
 106 988 106 988 120 1002 c 128,-1,24
 134 1016 134 1016 152.5 1024.5 c 128,-1,25
 171 1033 171 1033 194 1033 c 2,26,-1
 251 1033 l 1,27,28
 256 1060 256 1060 264 1088 c 0,29,30
 288 1168 288 1168 326.5 1235.5 c 128,-1,31
 365 1303 365 1303 422.5 1351 c 128,-1,32
 480 1399 480 1399 559 1425.5 c 128,-1,33
 638 1452 638 1452 742 1452 c 0,34,35
 815 1452 815 1452 881.5 1432.5 c 128,-1,36
 948 1413 948 1413 1005 1378.5 c 128,-1,37
 1062 1344 1062 1344 1108 1298 c 128,-1,38
 1154 1252 1154 1252 1185 1198 c 0,39,40
 1200 1171 1200 1171 1200 1146 c 0,41,42
 1200 1123 1200 1123 1191 1104 c 128,-1,43
 1182 1085 1182 1085 1168 1071 c 128,-1,44
 1154 1057 1154 1057 1135 1050 c 128,-1,45
 1116 1043 1116 1043 1097 1043 c 0,46,47
 1068 1043 1068 1043 1050 1054 c 128,-1,48
 1032 1065 1032 1065 1017 1082.5 c 128,-1,49
 1002 1100 1002 1100 989 1119.5 c 128,-1,50
 976 1139 976 1139 958 1157 c 1,51,52
 912 1198 912 1198 858 1221.5 c 128,-1,53
 804 1245 804 1245 742 1245 c 0,54,55
 648 1245 648 1245 587.5 1211.5 c 128,-1,56
 527 1178 527 1178 491 1112 c 0,57,58
 473 1077 473 1077 460 1033 c 1,59,-1
 888 1033 l 2,60,61
 909 1033 909 1033 928 1024.5 c 128,-1,62
 947 1016 947 1016 961 1002.5 c 128,-1,63
 975 989 975 989 983.5 969.5 c 128,-1,64
 992 950 992 950 992 930 c 0,65,66
 992 908 992 908 983.5 889.5 c 128,-1,67
 975 871 975 871 961 856.5 c 128,-1,68
 947 842 947 842 928 833.5 c 128,-1,69
 909 825 909 825 888 825 c 2,70,-1
 432 825 l 1,71,72
 430 778 430 778 430 726 c 0,73,74
 430 669 430 669 432 619 c 1,75,-1
 714 619 l 2,76,77
 735 619 735 619 754 610.5 c 128,-1,78
 773 602 773 602 787 588 c 128,-1,79
 801 574 801 574 809.5 555 c 128,-1,80
 818 536 818 536 818 515 c 256,81,82
 818 494 818 494 809.5 475.5 c 128,-1,83
 801 457 801 457 787 442.5 c 128,-1,84
 773 428 773 428 754.5 420 c 128,-1,85
 736 412 736 412 714 412 c 2,86,-1
 463 412 l 1,87,88
 478 362 478 362 499 324 c 1,89,90
 537 262 537 262 596 234.5 c 128,-1,91
 655 207 655 207 742 207 c 0,92,93
 788 207 788 207 829 220 c 128,-1,94
 870 233 870 233 904.5 254 c 128,-1,95
 939 275 939 275 966 303.5 c 128,-1,96
 993 332 993 332 1012 364 c 0,97,98
 1026 386 1026 386 1049.5 401 c 128,-1,99
 1073 416 1073 416 1103 416 c 0,100,101
 1125 416 1125 416 1144.5 406.5 c 128,-1,102
 1164 397 1164 397 1177 382.5 c 128,-1,103
 1190 368 1190 368 1197.5 349 c 128,-1,104
 1205 330 1205 330 1205 312 c 0,105,106
 1205 292 1205 292 1195.5 270.5 c 128,-1,107
 1186 249 1186 249 1171.5 227.5 c 128,-1,108
 1157 206 1157 206 1140 187 c 128,-1,109
 1123 168 1123 168 1109 153 c 0,110,111
 955 0 955 0 742 0 c 0,112,113
 637 0 637 0 551 29 c 128,-1,114
 465 58 465 58 401 118 c 128,-1,115
 337 178 337 178 295 270 c 0,116,117
 267 333 267 333 250 412 c 1,118,-1
 194 412 l 2,0,1
EndSplineSet
EndChar
